#N canvas 116 170 465 571 12;
#X obj 235 237 r gain;
#X obj 75 -158 r gfreq;
#X obj 195 257 *~;
#X obj 196 285 outlet~;
#X obj 75 -132 phasor~ 20;
#X obj 194 141 +~;
#X obj 195 229 *~;
#X obj 290 28 tabread~ wndw;
#X obj 142 -158 inlet;
#X obj 194 -157 inlet~;
#X obj 194 199 tabread~ playobject;
#X obj 250 -156 inlet~;
#X obj 307 -25 r trisize;
#X obj 195 169 mstosamps~;
#X obj 250 81 sah~ 0;
#X obj 193 49 sah~ 0;
#X obj 77 -81 *~ 2;
#X obj 43 -81 -~ 1;
#X obj 46 -30 max~ -0.01;
#X obj 42 -55 min~ 1.01;
#X obj 76 -107 +~ 0.1;
#X obj 289 1 *~;
#X obj 213 110 *~;
#X connect 0 0 2 1;
#X connect 1 0 4 0;
#X connect 2 0 3 0;
#X connect 4 0 20 0;
#X connect 5 0 13 0;
#X connect 6 0 2 0;
#X connect 7 0 14 1;
#X connect 7 0 15 1;
#X connect 7 0 6 1;
#X connect 8 0 4 1;
#X connect 9 0 15 0;
#X connect 10 0 6 0;
#X connect 11 0 14 0;
#X connect 12 0 21 1;
#X connect 13 0 10 0;
#X connect 14 0 22 1;
#X connect 15 0 5 0;
#X connect 16 0 17 0;
#X connect 17 0 19 0;
#X connect 18 0 21 0;
#X connect 18 0 22 0;
#X connect 19 0 18 0;
#X connect 20 0 16 0;
#X connect 21 0 7 0;
#X connect 22 0 5 1;
