#N canvas 127 234 748 427 12;
#X obj 68 43 tgl 15 0 empty empty empty 0 -6 0 8 -262144 -1 -1 1 1
;
#X obj 67 125 snapshot~;
#X floatatom 67 157 10 0 0 0 - - -;
#X floatatom 67 240 10 0 0 0 - - -;
#X obj 68 307 line 100;
#X msg 67 271 \$1 50;
#X obj 68 75 metro 1;
#X obj 176 125 snapshot~;
#X floatatom 176 157 10 0 0 0 - - -;
#X obj 287 126 snapshot~;
#X floatatom 287 157 10 0 0 0 - - -;
#X obj 68 204 s_scaling;
#X floatatom 177 239 10 0 0 0 - - -;
#X obj 177 307 line 100;
#X msg 177 270 \$1 50;
#X floatatom 288 240 10 0 0 0 - - -;
#X obj 288 308 line 100;
#X msg 288 271 \$1 50;
#X obj 404 63 vsl 20 85 1.1 400 0 0 empty empty empty 0 -8 0 8 -262144
-1 -1 1030 1;
#X text 429 79 response;
#X text 427 103 (default=50);
#X text 428 59 long distance;
#X floatatom 405 169 5 0 0 0 - - -;
#X text 465 222 TO SET ZERO POINT;
#X text 466 253 distance;
#X text 465 237 to define maximum;
#X obj 67 7 loadbang;
#X obj 574 180 bng 25 250 50 0 empty empty empty 0 -6 0 8 -262144 -1
-1;
#X text 465 206 PUSH <SPACE> or BANG;
#X obj 590 125 bng 15 250 50 0 empty empty empty 0 -6 0 8 -262144 -1
-1;
#X obj 590 150 delay 1000;
#X obj 590 65 key;
#X obj 591 96 == 32;
#X msg 366 35 50;
#X obj 153 76 usbsen2~ 2 3;
#X obj 403 -1 inlet;
#X obj 573 -1 inlet;
#X obj 67 344 outlet;
#X obj 178 343 outlet;
#X obj 289 343 outlet;
#X obj 177 205 s_scaling;
#X obj 288 205 s_scaling;
#X connect 0 0 6 0;
#X connect 1 0 2 0;
#X connect 2 0 11 0;
#X connect 3 0 5 0;
#X connect 4 0 37 0;
#X connect 5 0 4 0;
#X connect 6 0 1 0;
#X connect 6 0 7 0;
#X connect 6 0 9 0;
#X connect 7 0 8 0;
#X connect 8 0 40 0;
#X connect 9 0 10 0;
#X connect 10 0 41 0;
#X connect 11 0 3 0;
#X connect 12 0 14 0;
#X connect 13 0 38 0;
#X connect 14 0 13 0;
#X connect 15 0 17 0;
#X connect 16 0 39 0;
#X connect 17 0 16 0;
#X connect 18 0 22 0;
#X connect 22 0 11 1;
#X connect 22 0 40 1;
#X connect 22 0 41 1;
#X connect 26 0 0 0;
#X connect 26 0 33 0;
#X connect 27 0 11 2;
#X connect 27 0 40 2;
#X connect 27 0 41 2;
#X connect 29 0 30 0;
#X connect 30 0 27 0;
#X connect 31 0 32 0;
#X connect 32 0 29 0;
#X connect 33 0 18 0;
#X connect 34 0 1 0;
#X connect 34 1 7 0;
#X connect 34 2 9 0;
#X connect 35 0 18 0;
#X connect 36 0 27 0;
#X connect 40 0 12 0;
#X connect 41 0 15 0;
