{
	"patcher" : 	{
		"fileversion" : 1,
		"rect" : [ 112.0, 77.0, 730.0, 603.0 ],
		"bglocked" : 0,
		"defrect" : [ 112.0, 77.0, 730.0, 603.0 ],
		"openrect" : [ 0.0, 0.0, 0.0, 0.0 ],
		"openinpresentation" : 0,
		"default_fontsize" : 12.0,
		"default_fontface" : 0,
		"default_fontname" : "Arial",
		"gridonopen" : 0,
		"gridsize" : [ 15.0, 15.0 ],
		"gridsnaponopen" : 0,
		"toolbarvisible" : 1,
		"boxanimatetime" : 200,
		"imprint" : 0,
		"metadata" : [  ],
		"boxes" : [ 			{
				"box" : 				{
					"maxclass" : "comment",
					"text" : "Change value and watch oscilograms",
					"linecount" : 2,
					"numoutlets" : 0,
					"fontsize" : 9.0,
					"patching_rect" : [ 123.0, 180.0, 102.0, 27.0 ],
					"id" : "obj-1",
					"fontname" : "Arial",
					"numinlets" : 1
				}

			}
, 			{
				"box" : 				{
					"maxclass" : "comment",
					"text" : "Change index values and watch oscilograms",
					"numoutlets" : 0,
					"fontsize" : 9.0,
					"patching_rect" : [ 221.0, 328.0, 206.0, 17.0 ],
					"id" : "obj-2",
					"fontname" : "Arial",
					"numinlets" : 1
				}

			}
, 			{
				"box" : 				{
					"maxclass" : "comment",
					"text" : "Click to run",
					"numoutlets" : 0,
					"fontsize" : 9.0,
					"patching_rect" : [ 46.0, 149.0, 61.0, 17.0 ],
					"id" : "obj-3",
					"fontname" : "Arial",
					"numinlets" : 1
				}

			}
, 			{
				"box" : 				{
					"maxclass" : "comment",
					"text" : "durat back",
					"linecount" : 2,
					"numoutlets" : 0,
					"fontsize" : 9.0,
					"patching_rect" : [ 350.0, 439.0, 32.0, 27.0 ],
					"id" : "obj-4",
					"fontname" : "Arial",
					"numinlets" : 1
				}

			}
, 			{
				"box" : 				{
					"maxclass" : "message",
					"text" : "30",
					"outlettype" : [ "" ],
					"numoutlets" : 1,
					"fontsize" : 9.0,
					"patching_rect" : [ 397.0, 343.0, 20.0, 15.0 ],
					"id" : "obj-5",
					"fontname" : "Arial",
					"numinlets" : 2
				}

			}
, 			{
				"box" : 				{
					"maxclass" : "message",
					"text" : "1",
					"outlettype" : [ "" ],
					"numoutlets" : 1,
					"fontsize" : 9.0,
					"patching_rect" : [ 380.0, 343.0, 16.0, 15.0 ],
					"id" : "obj-6",
					"fontname" : "Arial",
					"numinlets" : 2
				}

			}
, 			{
				"box" : 				{
					"maxclass" : "message",
					"text" : "100",
					"outlettype" : [ "" ],
					"numoutlets" : 1,
					"fontsize" : 9.0,
					"patching_rect" : [ 222.0, 343.0, 26.0, 15.0 ],
					"id" : "obj-7",
					"fontname" : "Arial",
					"numinlets" : 2
				}

			}
, 			{
				"box" : 				{
					"maxclass" : "message",
					"text" : "400",
					"outlettype" : [ "" ],
					"numoutlets" : 1,
					"fontsize" : 9.0,
					"patching_rect" : [ 278.0, 343.0, 26.0, 15.0 ],
					"id" : "obj-8",
					"fontname" : "Arial",
					"numinlets" : 2
				}

			}
, 			{
				"box" : 				{
					"maxclass" : "message",
					"text" : "200",
					"outlettype" : [ "" ],
					"numoutlets" : 1,
					"fontsize" : 9.0,
					"patching_rect" : [ 250.0, 343.0, 26.0, 15.0 ],
					"id" : "obj-9",
					"fontname" : "Arial",
					"numinlets" : 2
				}

			}
, 			{
				"box" : 				{
					"maxclass" : "comment",
					"text" : "velox © 2002-2005 Andrei & Sergei Smirnov Theremin Center for Electroacoustic Music, Moscow box2@theremin.ru http://asmir.theremin.ru",
					"linecount" : 3,
					"numoutlets" : 0,
					"fontsize" : 9.0,
					"patching_rect" : [ 306.0, 472.0, 249.0, 38.0 ],
					"id" : "obj-10",
					"fontname" : "Arial",
					"numinlets" : 1
				}

			}
, 			{
				"box" : 				{
					"maxclass" : "comment",
					"text" : "version 2.O for OSX",
					"numoutlets" : 0,
					"fontsize" : 9.0,
					"patching_rect" : [ 307.0, 517.0, 106.0, 17.0 ],
					"id" : "obj-11",
					"fontname" : "Arial",
					"numinlets" : 1
				}

			}
, 			{
				"box" : 				{
					"maxclass" : "comment",
					"text" : "Velox object was created to process input stream of float values to culculate velocity, direction, period and frequency of their changes.",
					"linecount" : 3,
					"numoutlets" : 0,
					"fontsize" : 9.0,
					"patching_rect" : [ 46.0, 83.0, 224.0, 38.0 ],
					"id" : "obj-12",
					"fontname" : "Arial",
					"numinlets" : 1
				}

			}
, 			{
				"box" : 				{
					"maxclass" : "comment",
					"text" : "velox",
					"numoutlets" : 0,
					"fontsize" : 20.0,
					"patching_rect" : [ 46.0, 42.0, 95.0, 35.0 ],
					"id" : "obj-13",
					"fontname" : "Arial Black",
					"numinlets" : 1
				}

			}
, 			{
				"box" : 				{
					"maxclass" : "flonum",
					"outlettype" : [ "float", "bang" ],
					"numoutlets" : 2,
					"fontsize" : 9.0,
					"patching_rect" : [ 380.0, 365.0, 35.0, 17.0 ],
					"id" : "obj-14",
					"bgcolor" : [ 0.866667, 0.866667, 0.866667, 1.0 ],
					"htextcolor" : [ 0.870588, 0.870588, 0.870588, 1.0 ],
					"triscale" : 0.9,
					"fontname" : "Arial",
					"numinlets" : 1
				}

			}
, 			{
				"box" : 				{
					"maxclass" : "flonum",
					"outlettype" : [ "float", "bang" ],
					"numoutlets" : 2,
					"fontsize" : 9.0,
					"patching_rect" : [ 250.0, 365.0, 35.0, 17.0 ],
					"id" : "obj-15",
					"bgcolor" : [ 0.866667, 0.866667, 0.866667, 1.0 ],
					"htextcolor" : [ 0.870588, 0.870588, 0.870588, 1.0 ],
					"triscale" : 0.9,
					"fontname" : "Arial",
					"numinlets" : 1
				}

			}
, 			{
				"box" : 				{
					"maxclass" : "flonum",
					"outlettype" : [ "float", "bang" ],
					"numoutlets" : 2,
					"fontsize" : 9.0,
					"patching_rect" : [ 119.0, 420.0, 53.0, 17.0 ],
					"id" : "obj-16",
					"bgcolor" : [ 0.866667, 0.866667, 0.866667, 1.0 ],
					"htextcolor" : [ 0.870588, 0.870588, 0.870588, 1.0 ],
					"triscale" : 0.9,
					"fontname" : "Arial",
					"numinlets" : 1
				}

			}
, 			{
				"box" : 				{
					"maxclass" : "number",
					"outlettype" : [ "int", "bang" ],
					"numoutlets" : 2,
					"fontsize" : 9.0,
					"patching_rect" : [ 344.0, 420.0, 41.0, 17.0 ],
					"id" : "obj-17",
					"bgcolor" : [ 0.866667, 0.866667, 0.866667, 1.0 ],
					"htextcolor" : [ 0.870588, 0.870588, 0.870588, 1.0 ],
					"triscale" : 0.9,
					"fontname" : "Arial",
					"numinlets" : 1
				}

			}
, 			{
				"box" : 				{
					"maxclass" : "number",
					"outlettype" : [ "int", "bang" ],
					"numoutlets" : 2,
					"fontsize" : 9.0,
					"patching_rect" : [ 299.0, 420.0, 41.0, 17.0 ],
					"id" : "obj-18",
					"bgcolor" : [ 0.866667, 0.866667, 0.866667, 1.0 ],
					"htextcolor" : [ 0.870588, 0.870588, 0.870588, 1.0 ],
					"triscale" : 0.9,
					"fontname" : "Arial",
					"numinlets" : 1
				}

			}
, 			{
				"box" : 				{
					"maxclass" : "number",
					"outlettype" : [ "int", "bang" ],
					"numoutlets" : 2,
					"fontsize" : 9.0,
					"patching_rect" : [ 268.0, 420.0, 26.0, 17.0 ],
					"id" : "obj-19",
					"bgcolor" : [ 0.866667, 0.866667, 0.866667, 1.0 ],
					"htextcolor" : [ 0.870588, 0.870588, 0.870588, 1.0 ],
					"triscale" : 0.9,
					"fontname" : "Arial",
					"numinlets" : 1
				}

			}
, 			{
				"box" : 				{
					"maxclass" : "number",
					"outlettype" : [ "int", "bang" ],
					"numoutlets" : 2,
					"fontsize" : 9.0,
					"patching_rect" : [ 177.0, 420.0, 26.0, 17.0 ],
					"id" : "obj-20",
					"bgcolor" : [ 0.866667, 0.866667, 0.866667, 1.0 ],
					"htextcolor" : [ 0.870588, 0.870588, 0.870588, 1.0 ],
					"triscale" : 0.9,
					"fontname" : "Arial",
					"numinlets" : 1
				}

			}
, 			{
				"box" : 				{
					"maxclass" : "slider",
					"min" : 3.0,
					"outlettype" : [ "" ],
					"numoutlets" : 1,
					"patching_rect" : [ 111.0, 160.0, 101.0, 18.0 ],
					"id" : "obj-21",
					"orientation" : 1,
					"size" : 40.0,
					"numinlets" : 1
				}

			}
, 			{
				"box" : 				{
					"maxclass" : "comment",
					"text" : "• Outlet 6 - duration between changes of direction (back) (ms, ints);\r",
					"numoutlets" : 0,
					"fontsize" : 9.0,
					"patching_rect" : [ 277.0, 227.0, 390.0, 17.0 ],
					"id" : "obj-22",
					"fontname" : "Arial",
					"numinlets" : 1
				}

			}
, 			{
				"box" : 				{
					"maxclass" : "comment",
					"text" : "• Outlet 5 - duration between changes of direction (fwd) (ms, ints);\r",
					"numoutlets" : 0,
					"fontsize" : 9.0,
					"patching_rect" : [ 277.0, 210.0, 359.0, 17.0 ],
					"id" : "obj-23",
					"fontname" : "Arial",
					"numinlets" : 1
				}

			}
, 			{
				"box" : 				{
					"maxclass" : "comment",
					"text" : "• Inlet 2 - time-average range (ms) to smooth the stream of velocity values and get rid of artifacts;\r",
					"numoutlets" : 0,
					"fontsize" : 9.0,
					"patching_rect" : [ 277.0, 93.0, 409.0, 17.0 ],
					"id" : "obj-24",
					"fontname" : "Arial",
					"numinlets" : 1
				}

			}
, 			{
				"box" : 				{
					"maxclass" : "comment",
					"text" : "• Outlet 3 - abs value of the velocity after smoothing (float);\r",
					"numoutlets" : 0,
					"fontsize" : 9.0,
					"patching_rect" : [ 277.0, 176.0, 377.0, 17.0 ],
					"id" : "obj-25",
					"fontname" : "Arial",
					"numinlets" : 1
				}

			}
, 			{
				"box" : 				{
					"maxclass" : "comment",
					"text" : "• Outlet 1 - velocity (float) - rate of change per second;\r",
					"numoutlets" : 0,
					"fontsize" : 9.0,
					"patching_rect" : [ 277.0, 142.0, 377.0, 17.0 ],
					"id" : "obj-26",
					"fontname" : "Arial",
					"numinlets" : 1
				}

			}
, 			{
				"box" : 				{
					"maxclass" : "comment",
					"text" : "• Outlet 2 - direction of motion (ints +-1);\r",
					"numoutlets" : 0,
					"fontsize" : 9.0,
					"patching_rect" : [ 277.0, 159.0, 310.0, 17.0 ],
					"id" : "obj-27",
					"fontname" : "Arial",
					"numinlets" : 1
				}

			}
, 			{
				"box" : 				{
					"maxclass" : "comment",
					"text" : "• Outlet 7 - frequency of changes of direction (hz, float);\r",
					"numoutlets" : 0,
					"fontsize" : 9.0,
					"patching_rect" : [ 277.0, 244.0, 338.0, 17.0 ],
					"id" : "obj-28",
					"fontname" : "Arial",
					"numinlets" : 1
				}

			}
, 			{
				"box" : 				{
					"maxclass" : "comment",
					"text" : "• Outlet 4 - motion (ints) 1 if velocity > threshold else 0;\r",
					"numoutlets" : 0,
					"fontsize" : 9.0,
					"patching_rect" : [ 277.0, 193.0, 307.0, 17.0 ],
					"id" : "obj-29",
					"fontname" : "Arial",
					"numinlets" : 1
				}

			}
, 			{
				"box" : 				{
					"maxclass" : "comment",
					"text" : "• Inlet 1- the stream of float numbers;\r",
					"numoutlets" : 0,
					"fontsize" : 9.0,
					"patching_rect" : [ 277.0, 72.0, 208.0, 17.0 ],
					"id" : "obj-30",
					"fontname" : "Arial",
					"numinlets" : 1
				}

			}
, 			{
				"box" : 				{
					"maxclass" : "comment",
					"text" : "• Inlet 3 - motion threshold (float, default = 1);\r",
					"numoutlets" : 0,
					"fontsize" : 9.0,
					"patching_rect" : [ 277.0, 115.0, 335.0, 17.0 ],
					"id" : "obj-31",
					"fontname" : "Arial",
					"numinlets" : 1
				}

			}
, 			{
				"box" : 				{
					"maxclass" : "comment",
					"text" : "• arg 2 - same as inlet 2;\r",
					"numoutlets" : 0,
					"fontsize" : 9.0,
					"patching_rect" : [ 277.0, 303.0, 264.0, 17.0 ],
					"id" : "obj-32",
					"fontname" : "Arial",
					"numinlets" : 1
				}

			}
, 			{
				"box" : 				{
					"maxclass" : "comment",
					"text" : "• arg 1 - same as inlet 3;\r",
					"numoutlets" : 0,
					"fontsize" : 9.0,
					"patching_rect" : [ 277.0, 287.0, 128.0, 17.0 ],
					"id" : "obj-33",
					"fontname" : "Arial",
					"numinlets" : 1
				}

			}
, 			{
				"box" : 				{
					"maxclass" : "multislider",
					"setstyle" : 3,
					"outlettype" : [ "", "" ],
					"candicane4" : [ 0.439216, 0.619608, 0.070588, 1.0 ],
					"numoutlets" : 2,
					"candicane2" : [ 0.145098, 0.203922, 0.356863, 1.0 ],
					"patching_rect" : [ 209.0, 450.0, 40.0, 59.0 ],
					"candicane7" : [ 0.878431, 0.243137, 0.145098, 1.0 ],
					"slidercolor" : [ 0.156863, 0.627451, 0.0, 1.0 ],
					"candicane5" : [ 0.584314, 0.827451, 0.431373, 1.0 ],
					"id" : "obj-34",
					"orientation" : 0,
					"compatibility" : 1,
					"candicane3" : [ 0.290196, 0.411765, 0.713726, 1.0 ],
					"candicane8" : [ 0.027451, 0.447059, 0.501961, 1.0 ],
					"setminmax" : [ 0.0, 100.0 ],
					"peakcolor" : [ 0.498039, 0.498039, 0.498039, 1.0 ],
					"candicane6" : [ 0.733333, 0.035294, 0.788235, 1.0 ],
					"numinlets" : 1
				}

			}
, 			{
				"box" : 				{
					"maxclass" : "multislider",
					"setstyle" : 3,
					"outlettype" : [ "", "" ],
					"candicane4" : [ 0.439216, 0.619608, 0.070588, 1.0 ],
					"numoutlets" : 2,
					"candicane2" : [ 0.145098, 0.203922, 0.356863, 1.0 ],
					"patching_rect" : [ 119.0, 450.0, 40.0, 59.0 ],
					"candicane7" : [ 0.878431, 0.243137, 0.145098, 1.0 ],
					"slidercolor" : [ 0.156863, 0.627451, 0.0, 1.0 ],
					"candicane5" : [ 0.584314, 0.827451, 0.431373, 1.0 ],
					"id" : "obj-35",
					"orientation" : 0,
					"compatibility" : 1,
					"candicane3" : [ 0.290196, 0.411765, 0.713726, 1.0 ],
					"candicane8" : [ 0.027451, 0.447059, 0.501961, 1.0 ],
					"setminmax" : [ -100.0, 100.0 ],
					"peakcolor" : [ 0.498039, 0.498039, 0.498039, 1.0 ],
					"candicane6" : [ 0.733333, 0.035294, 0.788235, 1.0 ],
					"numinlets" : 1
				}

			}
, 			{
				"box" : 				{
					"maxclass" : "message",
					"text" : "open",
					"outlettype" : [ "" ],
					"numoutlets" : 1,
					"fontsize" : 9.0,
					"patching_rect" : [ 490.0, 327.0, 29.0, 15.0 ],
					"id" : "obj-36",
					"fontname" : "Arial",
					"numinlets" : 2
				}

			}
, 			{
				"box" : 				{
					"maxclass" : "ezdac~",
					"numoutlets" : 0,
					"patching_rect" : [ 490.0, 355.0, 33.0, 33.0 ],
					"id" : "obj-37",
					"numinlets" : 2
				}

			}
, 			{
				"box" : 				{
					"maxclass" : "comment",
					"text" : "Start processing",
					"numoutlets" : 0,
					"fontsize" : 9.0,
					"patching_rect" : [ 472.0, 392.0, 89.0, 17.0 ],
					"id" : "obj-38",
					"fontname" : "Arial",
					"numinlets" : 1
				}

			}
, 			{
				"box" : 				{
					"maxclass" : "flonum",
					"outlettype" : [ "float", "bang" ],
					"numoutlets" : 2,
					"fontsize" : 9.0,
					"patching_rect" : [ 389.0, 420.0, 58.0, 17.0 ],
					"id" : "obj-39",
					"bgcolor" : [ 0.866667, 0.866667, 0.866667, 1.0 ],
					"htextcolor" : [ 0.870588, 0.870588, 0.870588, 1.0 ],
					"triscale" : 0.9,
					"fontname" : "Arial",
					"numinlets" : 1
				}

			}
, 			{
				"box" : 				{
					"maxclass" : "flonum",
					"outlettype" : [ "float", "bang" ],
					"numoutlets" : 2,
					"fontsize" : 9.0,
					"patching_rect" : [ 209.0, 420.0, 53.0, 17.0 ],
					"id" : "obj-40",
					"bgcolor" : [ 0.866667, 0.866667, 0.866667, 1.0 ],
					"htextcolor" : [ 0.870588, 0.870588, 0.870588, 1.0 ],
					"triscale" : 0.9,
					"fontname" : "Arial",
					"numinlets" : 1
				}

			}
, 			{
				"box" : 				{
					"maxclass" : "flonum",
					"outlettype" : [ "float", "bang" ],
					"numoutlets" : 2,
					"fontsize" : 9.0,
					"patching_rect" : [ 119.0, 367.0, 60.0, 17.0 ],
					"id" : "obj-41",
					"bgcolor" : [ 0.866667, 0.866667, 0.866667, 1.0 ],
					"htextcolor" : [ 0.870588, 0.870588, 0.870588, 1.0 ],
					"triscale" : 0.9,
					"fontname" : "Arial",
					"numinlets" : 1
				}

			}
, 			{
				"box" : 				{
					"maxclass" : "multislider",
					"setstyle" : 3,
					"outlettype" : [ "", "" ],
					"candicane4" : [ 0.439216, 0.619608, 0.070588, 1.0 ],
					"numoutlets" : 2,
					"candicane2" : [ 0.145098, 0.203922, 0.356863, 1.0 ],
					"patching_rect" : [ 68.0, 450.0, 37.0, 59.0 ],
					"candicane7" : [ 0.878431, 0.243137, 0.145098, 1.0 ],
					"slidercolor" : [ 0.156863, 0.627451, 0.0, 1.0 ],
					"candicane5" : [ 0.584314, 0.827451, 0.431373, 1.0 ],
					"id" : "obj-42",
					"orientation" : 0,
					"compatibility" : 1,
					"candicane3" : [ 0.290196, 0.411765, 0.713726, 1.0 ],
					"candicane8" : [ 0.027451, 0.447059, 0.501961, 1.0 ],
					"setminmax" : [ 0.0, 5500.0 ],
					"peakcolor" : [ 0.498039, 0.498039, 0.498039, 1.0 ],
					"candicane6" : [ 0.733333, 0.035294, 0.788235, 1.0 ],
					"numinlets" : 1
				}

			}
, 			{
				"box" : 				{
					"maxclass" : "newobj",
					"text" : "pfol2~ 200 1",
					"outlettype" : [ "", "" ],
					"numoutlets" : 2,
					"fontsize" : 9.0,
					"patching_rect" : [ 70.0, 337.0, 109.0, 17.0 ],
					"id" : "obj-43",
					"color" : [ 0.4, 0.4, 0.8, 1.0 ],
					"fontname" : "Arial",
					"numinlets" : 1
				}

			}
, 			{
				"box" : 				{
					"maxclass" : "slider",
					"mult" : 80.0,
					"min" : 1.0,
					"outlettype" : [ "" ],
					"numoutlets" : 1,
					"patching_rect" : [ 70.0, 232.0, 28.0, 49.0 ],
					"id" : "obj-44",
					"orientation" : 2,
					"size" : 50.0,
					"numinlets" : 1
				}

			}
, 			{
				"box" : 				{
					"maxclass" : "toggle",
					"outlettype" : [ "int" ],
					"numoutlets" : 1,
					"patching_rect" : [ 70.0, 164.0, 15.0, 15.0 ],
					"id" : "obj-45",
					"numinlets" : 1
				}

			}
, 			{
				"box" : 				{
					"maxclass" : "newobj",
					"text" : "metro 10",
					"outlettype" : [ "bang" ],
					"numoutlets" : 1,
					"fontsize" : 9.0,
					"patching_rect" : [ 70.0, 185.0, 51.0, 17.0 ],
					"id" : "obj-46",
					"fontname" : "Arial",
					"numinlets" : 2
				}

			}
, 			{
				"box" : 				{
					"maxclass" : "newobj",
					"text" : "counter 2 1 50",
					"outlettype" : [ "int", "", "", "int" ],
					"numoutlets" : 4,
					"fontsize" : 9.0,
					"patching_rect" : [ 70.0, 209.0, 75.0, 17.0 ],
					"id" : "obj-47",
					"fontname" : "Arial",
					"numinlets" : 5
				}

			}
, 			{
				"box" : 				{
					"maxclass" : "flonum",
					"outlettype" : [ "float", "bang" ],
					"numoutlets" : 2,
					"fontsize" : 9.0,
					"patching_rect" : [ 70.0, 289.0, 50.0, 17.0 ],
					"id" : "obj-48",
					"bgcolor" : [ 0.866667, 0.866667, 0.866667, 1.0 ],
					"htextcolor" : [ 0.870588, 0.870588, 0.870588, 1.0 ],
					"triscale" : 0.9,
					"fontname" : "Arial",
					"numinlets" : 1
				}

			}
, 			{
				"box" : 				{
					"maxclass" : "newobj",
					"text" : "cycle~",
					"outlettype" : [ "signal" ],
					"numoutlets" : 1,
					"fontsize" : 9.0,
					"patching_rect" : [ 70.0, 313.0, 38.0, 17.0 ],
					"id" : "obj-49",
					"fontname" : "Arial",
					"numinlets" : 2
				}

			}
, 			{
				"box" : 				{
					"maxclass" : "newobj",
					"text" : "velox 2 200",
					"outlettype" : [ "float", "int", "float", "int", "int", "int", "float" ],
					"numoutlets" : 7,
					"fontsize" : 9.0,
					"patching_rect" : [ 119.0, 395.0, 280.0, 17.0 ],
					"id" : "obj-50",
					"fontname" : "Arial",
					"numinlets" : 3
				}

			}
, 			{
				"box" : 				{
					"maxclass" : "comment",
					"text" : "velocity",
					"numoutlets" : 0,
					"fontsize" : 9.0,
					"patching_rect" : [ 118.0, 514.0, 49.0, 17.0 ],
					"id" : "obj-51",
					"fontname" : "Arial",
					"numinlets" : 1
				}

			}
, 			{
				"box" : 				{
					"maxclass" : "comment",
					"text" : "dir",
					"numoutlets" : 0,
					"fontsize" : 9.0,
					"patching_rect" : [ 178.0, 440.0, 22.0, 17.0 ],
					"id" : "obj-52",
					"fontname" : "Arial",
					"numinlets" : 1
				}

			}
, 			{
				"box" : 				{
					"maxclass" : "comment",
					"text" : "abs velocity",
					"numoutlets" : 0,
					"fontsize" : 9.0,
					"patching_rect" : [ 200.0, 514.0, 65.0, 17.0 ],
					"id" : "obj-53",
					"fontname" : "Arial",
					"numinlets" : 1
				}

			}
, 			{
				"box" : 				{
					"maxclass" : "comment",
					"text" : "motion",
					"numoutlets" : 0,
					"fontsize" : 9.0,
					"patching_rect" : [ 262.0, 440.0, 39.0, 17.0 ],
					"id" : "obj-54",
					"fontname" : "Arial",
					"numinlets" : 1
				}

			}
, 			{
				"box" : 				{
					"maxclass" : "comment",
					"text" : "durat fwd",
					"linecount" : 2,
					"numoutlets" : 0,
					"fontsize" : 9.0,
					"patching_rect" : [ 306.0, 439.0, 32.0, 27.0 ],
					"id" : "obj-55",
					"fontname" : "Arial",
					"numinlets" : 1
				}

			}
, 			{
				"box" : 				{
					"maxclass" : "comment",
					"text" : "freq of changes",
					"numoutlets" : 0,
					"fontsize" : 9.0,
					"patching_rect" : [ 387.0, 440.0, 88.0, 17.0 ],
					"id" : "obj-56",
					"fontname" : "Arial",
					"numinlets" : 1
				}

			}
, 			{
				"box" : 				{
					"maxclass" : "comment",
					"text" : "input",
					"numoutlets" : 0,
					"fontsize" : 9.0,
					"patching_rect" : [ 71.0, 514.0, 32.0, 17.0 ],
					"id" : "obj-57",
					"fontname" : "Arial",
					"numinlets" : 1
				}

			}
, 			{
				"box" : 				{
					"maxclass" : "comment",
					"text" : "Arguments:",
					"numoutlets" : 0,
					"fontsize" : 9.0,
					"patching_rect" : [ 277.0, 271.0, 100.0, 17.0 ],
					"id" : "obj-58",
					"fontname" : "Arial",
					"numinlets" : 1
				}

			}
 ],
		"lines" : [ 			{
				"patchline" : 				{
					"source" : [ "obj-36", 0 ],
					"destination" : [ "obj-37", 0 ],
					"hidden" : 0,
					"midpoints" : [  ]
				}

			}
, 			{
				"patchline" : 				{
					"source" : [ "obj-50", 6 ],
					"destination" : [ "obj-39", 0 ],
					"hidden" : 0,
					"midpoints" : [  ]
				}

			}
, 			{
				"patchline" : 				{
					"source" : [ "obj-14", 0 ],
					"destination" : [ "obj-50", 2 ],
					"hidden" : 0,
					"midpoints" : [  ]
				}

			}
, 			{
				"patchline" : 				{
					"source" : [ "obj-6", 0 ],
					"destination" : [ "obj-14", 0 ],
					"hidden" : 0,
					"midpoints" : [  ]
				}

			}
, 			{
				"patchline" : 				{
					"source" : [ "obj-5", 0 ],
					"destination" : [ "obj-14", 0 ],
					"hidden" : 0,
					"midpoints" : [  ]
				}

			}
, 			{
				"patchline" : 				{
					"source" : [ "obj-50", 5 ],
					"destination" : [ "obj-17", 0 ],
					"hidden" : 0,
					"midpoints" : [  ]
				}

			}
, 			{
				"patchline" : 				{
					"source" : [ "obj-50", 4 ],
					"destination" : [ "obj-18", 0 ],
					"hidden" : 0,
					"midpoints" : [  ]
				}

			}
, 			{
				"patchline" : 				{
					"source" : [ "obj-50", 3 ],
					"destination" : [ "obj-19", 0 ],
					"hidden" : 0,
					"midpoints" : [  ]
				}

			}
, 			{
				"patchline" : 				{
					"source" : [ "obj-15", 0 ],
					"destination" : [ "obj-50", 1 ],
					"hidden" : 0,
					"midpoints" : [  ]
				}

			}
, 			{
				"patchline" : 				{
					"source" : [ "obj-9", 0 ],
					"destination" : [ "obj-15", 0 ],
					"hidden" : 0,
					"midpoints" : [  ]
				}

			}
, 			{
				"patchline" : 				{
					"source" : [ "obj-8", 0 ],
					"destination" : [ "obj-15", 0 ],
					"hidden" : 0,
					"midpoints" : [  ]
				}

			}
, 			{
				"patchline" : 				{
					"source" : [ "obj-7", 0 ],
					"destination" : [ "obj-15", 0 ],
					"hidden" : 0,
					"midpoints" : [  ]
				}

			}
, 			{
				"patchline" : 				{
					"source" : [ "obj-40", 0 ],
					"destination" : [ "obj-34", 0 ],
					"hidden" : 0,
					"midpoints" : [  ]
				}

			}
, 			{
				"patchline" : 				{
					"source" : [ "obj-50", 2 ],
					"destination" : [ "obj-40", 0 ],
					"hidden" : 0,
					"midpoints" : [  ]
				}

			}
, 			{
				"patchline" : 				{
					"source" : [ "obj-50", 1 ],
					"destination" : [ "obj-20", 0 ],
					"hidden" : 0,
					"midpoints" : [  ]
				}

			}
, 			{
				"patchline" : 				{
					"source" : [ "obj-16", 0 ],
					"destination" : [ "obj-35", 0 ],
					"hidden" : 0,
					"midpoints" : [  ]
				}

			}
, 			{
				"patchline" : 				{
					"source" : [ "obj-50", 0 ],
					"destination" : [ "obj-16", 0 ],
					"hidden" : 0,
					"midpoints" : [  ]
				}

			}
, 			{
				"patchline" : 				{
					"source" : [ "obj-41", 0 ],
					"destination" : [ "obj-50", 0 ],
					"hidden" : 0,
					"midpoints" : [  ]
				}

			}
, 			{
				"patchline" : 				{
					"source" : [ "obj-43", 1 ],
					"destination" : [ "obj-41", 0 ],
					"hidden" : 0,
					"midpoints" : [  ]
				}

			}
, 			{
				"patchline" : 				{
					"source" : [ "obj-21", 0 ],
					"destination" : [ "obj-46", 1 ],
					"hidden" : 0,
					"midpoints" : [  ]
				}

			}
, 			{
				"patchline" : 				{
					"source" : [ "obj-49", 0 ],
					"destination" : [ "obj-43", 0 ],
					"hidden" : 0,
					"midpoints" : [  ]
				}

			}
, 			{
				"patchline" : 				{
					"source" : [ "obj-48", 0 ],
					"destination" : [ "obj-49", 0 ],
					"hidden" : 0,
					"midpoints" : [  ]
				}

			}
, 			{
				"patchline" : 				{
					"source" : [ "obj-44", 0 ],
					"destination" : [ "obj-48", 0 ],
					"hidden" : 0,
					"midpoints" : [  ]
				}

			}
, 			{
				"patchline" : 				{
					"source" : [ "obj-47", 0 ],
					"destination" : [ "obj-44", 0 ],
					"hidden" : 0,
					"midpoints" : [  ]
				}

			}
, 			{
				"patchline" : 				{
					"source" : [ "obj-46", 0 ],
					"destination" : [ "obj-47", 0 ],
					"hidden" : 0,
					"midpoints" : [  ]
				}

			}
, 			{
				"patchline" : 				{
					"source" : [ "obj-45", 0 ],
					"destination" : [ "obj-46", 0 ],
					"hidden" : 0,
					"midpoints" : [  ]
				}

			}
, 			{
				"patchline" : 				{
					"source" : [ "obj-41", 0 ],
					"destination" : [ "obj-42", 0 ],
					"hidden" : 0,
					"midpoints" : [  ]
				}

			}
 ]
	}

}
