#N canvas 90 66 464 646 12;
#X obj 168 200 r gain;
#X obj -21 -210 r gfreq;
#X obj 91 225 *~;
#X obj 91 252 outlet~;
#X obj -21 -183 phasor~ 20;
#X obj 91 114 +~;
#X obj 91 200 *~;
#X text -85 277 sample and hold (change value only when wave~ outputs
signal 0 __for avoiding noises when play position is changed );
#X obj -17 25 tabread~ wndw;
#X obj 45 -242 inlet;
#X obj -17 -3 *~ 1;
#X obj 91 -241 inlet~;
#X obj 91 167 tabread~ playobject;
#X obj 8 -29 r trisize;
#X obj 91 142 mstosamps~;
#X obj 91 62 sah~ 0;
#X obj -21 -131 *~ 2;
#X obj -21 -106 -~ 1;
#X obj -17 -55 max~ -0.01;
#X obj -21 -80 min~ 1.01;
#X obj -21 -157 +~ 0.1;
#X obj 109 88 *~ 50;
#X connect 0 0 2 1;
#X connect 1 0 4 0;
#X connect 2 0 3 0;
#X connect 4 0 20 0;
#X connect 5 0 14 0;
#X connect 6 0 2 0;
#X connect 8 0 15 1;
#X connect 8 0 6 1;
#X connect 9 0 4 1;
#X connect 10 0 8 0;
#X connect 11 0 15 0;
#X connect 12 0 6 0;
#X connect 13 0 10 1;
#X connect 14 0 12 0;
#X connect 15 0 5 0;
#X connect 16 0 17 0;
#X connect 17 0 19 0;
#X connect 18 0 10 0;
#X connect 18 0 21 0;
#X connect 19 0 18 0;
#X connect 20 0 16 0;
#X connect 21 0 5 1;
