#N canvas 237 135 532 665 10;
#X obj 212 96 route 1;
#X msg 212 119 \$1;
#X floatatom 212 141 13 0 0 0 - - -;
#X obj 107 44 adc~;
#X obj 107 67 fiddle~ 1024 1 1 1;
#X obj 212 277 - 0;
#X msg 227 227 set \$1;
#X floatatom 212 206 13 0 0 0 - - -;
#X obj 130 205 bng 15 250 50 0 empty empty empty 0 -6 0 8 -262144 -1
-1;
#X obj 130 227 delay 1000;
#X obj 356 317 pipe 30;
#X obj 341 342 -;
#X floatatom 341 297 5 0 0 0 - - -;
#X obj 341 363 * 1;
#X msg 341 384 \$1 200;
#X obj 212 183 line;
#X msg 212 160 \$1 100;
#X obj 130 160 key;
#X floatatom 212 392 10 0 0 0 - - -;
#X obj 212 299 abs;
#X obj 212 322 / 100;
#X obj 212 345 logcurve;
#X floatatom 257 324 5 0 0 0 - - -;
#X obj 212 435 line 100;
#X msg 212 412 \$1 50;
#X text 70 117 TO SET ZERO POINT;
#X text 70 101 PUSH <SPACE>;
#X text 71 148 distance;
#X text 70 132 to tune maximum;
#X text 210 492 distance out;
#X text 337 491 velocity out;
#X obj 227 252 nbx 6 16 -1e+37 1e+37 0 0 empty empty empty 0 -6 0 10
-262144 -1 -1 0 256;
#X obj 300 205 vsl 20 85 1.1 400 0 0 empty empty empty 0 -8 0 8 -262144
-1 -1 1030 1;
#X text 322 268 (default=50);
#X msg 300 181 50;
#X obj 300 159 loadbang;
#X obj 130 181 select 32;
#X obj 341 405 line~;
#X obj 341 428 /~ 300;
#X obj 341 450 abs~;
#X obj 257 17 inlet;
#X obj 112 478 outlet;
#X obj 212 476 outlet;
#X text 322 245 long distance response;
#X obj 341 475 outlet~;
#X text 109 494 carrier out;
#X obj 212 369 * 5000;
#X connect 0 0 1 0;
#X connect 1 0 2 0;
#X connect 2 0 16 0;
#X connect 3 0 4 0;
#X connect 4 4 0 0;
#X connect 5 0 19 0;
#X connect 6 0 31 0;
#X connect 7 0 6 0;
#X connect 7 0 5 0;
#X connect 8 0 9 0;
#X connect 9 0 31 0;
#X connect 10 0 11 1;
#X connect 11 0 13 0;
#X connect 12 0 10 0;
#X connect 12 0 11 0;
#X connect 13 0 14 0;
#X connect 14 0 37 0;
#X connect 15 0 7 0;
#X connect 15 0 41 0;
#X connect 16 0 15 0;
#X connect 17 0 36 0;
#X connect 18 0 24 0;
#X connect 19 0 20 0;
#X connect 20 0 21 0;
#X connect 21 0 46 0;
#X connect 22 0 21 1;
#X connect 23 0 12 0;
#X connect 23 0 42 0;
#X connect 24 0 23 0;
#X connect 31 0 5 1;
#X connect 32 0 22 0;
#X connect 34 0 32 0;
#X connect 35 0 34 0;
#X connect 36 0 8 0;
#X connect 37 0 38 0;
#X connect 38 0 39 0;
#X connect 39 0 44 0;
#X connect 40 0 22 0;
#X connect 46 0 18 0;
