#N canvas 756 143 393 552 10;
#X obj 40 213 - 0;
#X msg 58 161 set \$1;
#X floatatom 40 140 13 0 0 0 - - -;
#X obj 157 139 bng 15 250 50 0 empty empty empty 0 -6 0 8 -262144 -1
-1;
#X obj 180 294 line;
#X obj 196 228 pipe 30;
#X obj 180 250 -;
#X floatatom 180 208 5 0 0 0 - - -;
#X msg 180 272 \$1 200;
#X obj 40 117 line;
#X msg 40 94 \$1 100;
#X obj 40 236 abs;
#X obj 40 260 / 100;
#X obj 40 288 logcurve;
#X floatatom 91 262 5 0 0 0 - - -;
#X floatatom 40 360 13 0 0 0 - - -;
#X obj 179 339 abs;
#X text 47 379 distance out;
#X text 186 380 velocity out;
#X floatatom 180 362 13 0 0 0 - - -;
#X obj 57 188 nbx 6 16 -1e+37 1e+37 0 0 empty empty empty 0 -6 0 10
-262144 -1 -1 12578 256;
#X text 133 26 (default=50);
#X msg 103 237 50;
#X text 133 10 long distance response;
#X obj 92 21 inlet;
#X obj 41 21 inlet;
#X obj 39 403 outlet;
#X obj 181 405 outlet;
#X obj 157 74 inlet;
#X obj 103 212 loadbang;
#X obj 179 317 / 100;
#X text 167 90 SET ZERO POINT;
#X obj 40 317 * 5000;
#X connect 0 0 11 0;
#X connect 1 0 20 0;
#X connect 2 0 1 0;
#X connect 2 0 0 0;
#X connect 3 0 20 0;
#X connect 4 0 30 0;
#X connect 5 0 6 1;
#X connect 6 0 8 0;
#X connect 7 0 5 0;
#X connect 7 0 6 0;
#X connect 8 0 4 0;
#X connect 9 0 2 0;
#X connect 10 0 9 0;
#X connect 11 0 12 0;
#X connect 12 0 13 0;
#X connect 13 0 32 0;
#X connect 14 0 13 1;
#X connect 15 0 26 0;
#X connect 16 0 19 0;
#X connect 19 0 27 0;
#X connect 20 0 0 1;
#X connect 22 0 14 0;
#X connect 24 0 14 0;
#X connect 25 0 10 0;
#X connect 28 0 3 0;
#X connect 29 0 22 0;
#X connect 30 0 16 0;
#X connect 32 0 7 0;
#X connect 32 0 15 0;
