#N canvas 94 117 1152 696 10;
#X msg 710 6 \; pd dsp 0;
#N canvas 0 22 450 300 (subpatch) 0;
#X array array01 290304 float 0;
#X coords 0 1 290303 -1 150 75 1;
#X restore 278 34 graph;
#X msg 503 78 bang;
#X text 499 223 load new sample;
#X obj 504 341 soundfiler;
#X obj 504 268 openpanel;
#X msg 504 248 bang;
#X obj 503 50 dac~ 1;
#X msg 503 6 bang;
#X obj 503 28 tabplay~ array01;
#X msg 592 8 set array01;
#X msg 504 149 bang;
#X obj 503 123 dac~ 2;
#X obj 504 198 dac~;
#X msg 591 79 set array02;
#X obj 503 101 tabplay~ array02;
#X msg 591 152 set array03;
#X obj 504 174 tabplay~ array03;
#X obj 504 462 soundfiler;
#X obj 504 389 openpanel;
#X msg 504 369 bang;
#N canvas 0 22 450 300 (subpatch) 0;
#X array array02 290304 float 0;
#X coords 0 1 290303 -1 150 75 1;
#X restore 279 133 graph;
#X obj 504 581 soundfiler;
#X obj 504 508 openpanel;
#X msg 504 488 bang;
#X msg 504 528 read -resize \$1 array03 \; pd dsp1 \;;
#X msg 513 561 read -resize sound01.wav array03;
#N canvas 0 22 450 300 (subpatch) 0;
#X array array03 2.57199e+06 float 0;
#X coords 0 1 2.57199e+06 -1 150 75 1;
#X restore 281 231 graph;
#X msg 546 150 stop;
#X msg 544 7 stop;
#X msg 545 78 stop;
#X obj 43 62 route 1;
#X msg 43 85 \$1;
#X floatatom 43 107 13 0 0 0 - - -;
#X obj 42 11 adc~;
#X obj 42 36 fiddle~ 1024 1 1 1;
#X obj 43 243 - 0;
#X msg 58 193 set \$1;
#X floatatom 43 172 13 0 0 0 - - -;
#X obj -29 151 bng 15 250 50 0 empty empty empty 0 -6 0 8 -262144 -1
-1;
#X obj -29 173 delay 1000;
#X obj 58 457 pipe 30;
#X floatatom 43 437 5 0 0 0 - - -;
#X msg 43 505 \$1 200;
#X obj 43 149 line;
#X obj -29 106 key;
#X floatatom 43 358 10 0 0 0 - - -;
#X obj 43 265 abs;
#X obj 43 288 / 100;
#X obj 43 335 range 0 1 0 5000 0;
#X floatatom 88 290 5 0 0 0 - - -;
#X obj 43 402 line 100;
#X msg 43 378 \$1 50;
#X msg 88 265 10;
#X floatatom 309 379 13 0 0 0 - - -;
#X text 98 401 distance out;
#X text 81 595 velocity out;
#X obj 58 218 nbx 6 16 -1e+37 1e+37 0 0 empty empty empty 0 -6 0 10
-262144 -1 -1 0 256;
#X obj 135 191 vsl 20 85 1.1 400 0 0 empty empty empty 0 -8 0 8 -262144
-1 -1 1030 1;
#X msg 135 167 50;
#X obj 135 139 loadbang;
#X obj -29 127 select 32;
#X obj 43 311 logcurve;
#X obj 324 467 TogEdge;
#X obj 398 466 TogEdge;
#X obj 230 466 TogEdge;
#X floatatom 312 350 10 0 0 0 - - -;
#X floatatom 392 350 10 0 0 0 - - -;
#X floatatom 238 350 10 0 0 0 - - -;
#X msg 513 321 read -resize sound01.wav array01;
#X msg 504 288 read -resize \$1 array01 \; pd dsp1 \;;
#X msg 504 409 read -resize \$1 array02 \; pd dsp1 \;;
#X msg 513 442 read -resize sound01.wav array02;
#X obj 212 402 > 100;
#X obj 255 403 < 400;
#X obj 309 404 > 400;
#X obj 352 404 < 800;
#X obj 398 405 > 800;
#X obj 230 424 *;
#X obj 230 445 tgl 15 0 empty empty empty 17 7 0 10 -262144 -1 -1 0
1;
#X obj 324 425 *;
#X obj 324 446 tgl 15 0 empty empty empty 17 7 0 10 -262144 -1 -1 0
1;
#X obj 398 445 tgl 15 0 empty empty empty 17 7 0 10 -262144 -1 -1 0
1;
#X msg 43 126 \$1 20;
#X obj 43 482 -;
#X obj 43 526 line;
#X obj 43 549 / 300;
#X obj 43 570 abs;
#X floatatom 43 594 5 0 0 0 - - -;
#X floatatom 313 527 13 0 0 0 - - -;
#X obj 328 615 TogEdge;
#X obj 402 613 TogEdge;
#X obj 234 614 TogEdge;
#X floatatom 311 501 10 0 0 0 - - -;
#X floatatom 391 501 10 0 0 0 - - -;
#X floatatom 237 501 10 0 0 0 - - -;
#X obj 234 572 *;
#X obj 234 593 tgl 15 0 empty empty empty 17 7 0 10 -262144 -1 -1 0
1;
#X obj 328 573 *;
#X obj 328 594 tgl 15 0 empty empty empty 17 7 0 10 -262144 -1 -1 0
1;
#X obj 402 592 tgl 15 0 empty empty empty 17 7 0 10 -262144 -1 -1 0
1;
#X obj 216 550 > 20;
#X obj 259 551 < 80;
#X obj 313 552 > 80;
#X obj 356 552 < 150;
#X obj 402 553 > 150;
#X obj 733 345 tgl 15 0 empty empty empty 0 -6 0 8 -262144 -1 -1 0
1;
#X msg 733 364 \; gemwin_mess fullscreen \$1;
#X text 749 346 fullscreen/windowed;
#X obj 729 166 gemwin;
#X obj 730 251 gemmouse;
#X obj 729 142 r gemwin_mess;
#X obj 751 313 s gemwin_mess;
#X obj 751 272 del 100;
#X msg 751 293 destroy;
#X msg 728 214 \; gemwin_mess cursor \$1;
#X obj 728 195 tgl 15 1 empty empty empty 0 -6 0 8 -262144 -1 -1 1
1;
#X text 747 193 show/hide cursor;
#N canvas 0 22 450 300 gemwin 0;
#X obj 132 136 gemwin;
#X obj 67 89 outlet;
#X obj 67 10 inlet;
#X msg 67 70 set destroy;
#X msg 132 112 create \, 1;
#X msg 198 112 destroy;
#X msg 156 71 set create;
#X obj 67 41 route create;
#X connect 2 0 7 0;
#X connect 3 0 1 0;
#X connect 4 0 0 0;
#X connect 5 0 0 0;
#X connect 6 0 1 0;
#X connect 7 0 3 0;
#X connect 7 0 4 0;
#X connect 7 1 6 0;
#X connect 7 1 5 0;
#X restore 730 105 pd gemwin;
#X msg 730 86 destroy;
#X obj 917 106 gemhead;
#X obj 917 355 pix_texture;
#X obj 929 136 bng 25 250 50 0 empty empty empty 0 -6 0 8 -262144 -1
-1;
#X text 960 136 open a supported;
#X text 961 147 movie-clip;
#X obj 977 270 bng 15 250 50 0 empty empty end_reached 20 7 0 10 -262144
-1 -1;
#X floatatom 968 248 5 0 10000 1 frame# - -;
#X obj 929 165 openpanel;
#X msg 929 185 open \$1;
#X obj 917 377 rectangle 4 3;
#X obj 917 266 pix_film;
#X msg 951 226 auto \$1;
#X obj 951 208 tgl 15 0 empty empty empty 0 -6 0 8 -262144 -1 -1 0
1;
#X obj 939 293 unpack 0 0 0;
#X floatatom 939 316 5 0 0 3 length - -;
#X floatatom 978 316 5 0 0 3 width - -;
#X floatatom 1016 316 5 0 0 3 height - -;
#X obj 732 451 *;
#X obj 750 408 hsl 128 15 0 127 0 0 empty empty empty -2 -8 0 10 -262144
-1 -1 1400 1;
#X obj 747 428 * 20;
#X connect 2 0 15 0;
#X connect 5 0 70 0;
#X connect 6 0 5 0;
#X connect 8 0 9 0;
#X connect 9 0 7 0;
#X connect 10 0 9 0;
#X connect 11 0 17 0;
#X connect 14 0 15 0;
#X connect 15 0 12 0;
#X connect 16 0 17 0;
#X connect 17 0 13 0;
#X connect 17 0 13 1;
#X connect 19 0 71 0;
#X connect 20 0 19 0;
#X connect 23 0 25 0;
#X connect 24 0 23 0;
#X connect 25 0 22 0;
#X connect 26 0 22 0;
#X connect 28 0 17 0;
#X connect 29 0 9 0;
#X connect 30 0 15 0;
#X connect 31 0 32 0;
#X connect 32 0 33 0;
#X connect 33 0 83 0;
#X connect 34 0 35 0;
#X connect 35 4 31 0;
#X connect 36 0 47 0;
#X connect 37 0 57 0;
#X connect 38 0 37 0;
#X connect 38 0 36 0;
#X connect 39 0 40 0;
#X connect 40 0 57 0;
#X connect 41 0 84 1;
#X connect 42 0 41 0;
#X connect 42 0 84 0;
#X connect 43 0 85 0;
#X connect 44 0 38 0;
#X connect 45 0 61 0;
#X connect 46 0 52 0;
#X connect 47 0 48 0;
#X connect 48 0 62 0;
#X connect 49 0 46 0;
#X connect 50 0 62 1;
#X connect 51 0 42 0;
#X connect 51 0 54 0;
#X connect 52 0 51 0;
#X connect 53 0 50 0;
#X connect 54 0 73 0;
#X connect 54 0 75 0;
#X connect 54 0 77 0;
#X connect 57 0 36 1;
#X connect 58 0 50 0;
#X connect 59 0 58 0;
#X connect 60 0 59 0;
#X connect 60 0 53 0;
#X connect 61 0 39 0;
#X connect 62 0 49 0;
#X connect 62 0 137 0;
#X connect 63 0 2 0;
#X connect 63 1 30 0;
#X connect 64 0 11 0;
#X connect 64 1 28 0;
#X connect 65 0 8 0;
#X connect 65 1 29 0;
#X connect 66 0 74 1;
#X connect 66 0 75 1;
#X connect 67 0 76 1;
#X connect 67 0 77 1;
#X connect 68 0 73 1;
#X connect 69 0 4 0;
#X connect 70 0 4 0;
#X connect 71 0 18 0;
#X connect 72 0 18 0;
#X connect 73 0 78 0;
#X connect 74 0 78 1;
#X connect 75 0 80 0;
#X connect 76 0 80 1;
#X connect 77 0 82 0;
#X connect 78 0 79 0;
#X connect 79 0 65 0;
#X connect 80 0 81 0;
#X connect 81 0 63 0;
#X connect 82 0 64 0;
#X connect 83 0 44 0;
#X connect 84 0 43 0;
#X connect 85 0 86 0;
#X connect 86 0 87 0;
#X connect 87 0 88 0;
#X connect 88 0 89 0;
#X connect 89 0 101 0;
#X connect 89 0 103 0;
#X connect 89 0 105 0;
#X connect 93 0 102 1;
#X connect 93 0 103 1;
#X connect 94 0 104 1;
#X connect 94 0 105 1;
#X connect 95 0 101 1;
#X connect 96 0 97 0;
#X connect 97 0 92 0;
#X connect 98 0 99 0;
#X connect 99 0 90 0;
#X connect 100 0 91 0;
#X connect 101 0 96 0;
#X connect 102 0 96 1;
#X connect 103 0 98 0;
#X connect 104 0 98 1;
#X connect 105 0 100 0;
#X connect 106 0 107 0;
#X connect 110 2 113 0;
#X connect 111 0 109 0;
#X connect 113 0 114 0;
#X connect 114 0 112 0;
#X connect 116 0 115 0;
#X connect 118 0 119 0;
#X connect 119 0 118 0;
#X connect 120 0 130 0;
#X connect 121 0 129 0;
#X connect 122 0 127 0;
#X connect 126 0 130 1;
#X connect 127 0 128 0;
#X connect 128 0 130 0;
#X connect 130 0 121 0;
#X connect 130 1 133 0;
#X connect 130 2 125 0;
#X connect 131 0 130 0;
#X connect 132 0 131 0;
#X connect 133 0 134 0;
#X connect 133 1 135 0;
#X connect 133 2 136 0;
#X connect 137 0 126 0;
#X connect 138 0 139 0;
#X connect 139 0 137 1;
