#N canvas 220 74 858 547 10;
#X obj 599 149 s raw_length;
#X obj 528 150 r rndm;
#X obj 501 173 expr $f2 - $f1;
#X obj 501 195 s sample_length;
#X text 496 -26 load new sample;
#X obj 501 95 soundfiler;
#N canvas 364 443 518 230 windowstuff 1;
#X text 328 16 window shape;
#X obj 30 29 loadbang;
#X obj 51 75 soundfiler;
#N canvas 0 22 450 300 (subpatch) 0;
#X array wndw 516 float 0;
#X coords 0 1 515 -1 200 140 1;
#X restore 282 39 graph;
#X msg 51 53 read -resize tri wndw;
#X obj 51 97 s trisize;
#X obj 27 144 soundfiler;
#X obj 28 164 s playsize;
#X msg 30 124 read -resize sound01.wav playobject;
#X connect 1 0 4 0;
#X connect 1 0 8 0;
#X connect 2 0 5 0;
#X connect 4 0 2 0;
#X connect 6 0 7 0;
#X connect 8 0 6 0;
#X restore 598 174 pd windowstuff;
#X msg 500 -281 \; pd dsp 1;
#X msg 584 -281 \; pd dsp 0;
#X text 512 -241 ON;
#X text 593 -241 OFF;
#N canvas 0 22 450 300 (subpatch) 0;
#X array playobject 165046 float 0;
#X coords 0 1 165045 -1 200 140 1;
#X restore 498 -190 graph;
#X obj 501 120 sampstoms;
#X obj 501 151 bng 15 250 50 0 empty empty empty 20 8 0 8 -262144 -1
-1;
#X obj 501 23 openpanel;
#X msg 501 -1 bang;
#X msg 501 47 read -resize \$1 playobject;
#X obj 570 96 r playsize;
#X obj 45 -230 route 1;
#X msg 45 -207 \$1;
#X floatatom 45 -184 13 0 0 0 - - -;
#X obj -60 -278 adc~;
#X obj -60 -255 fiddle~ 1024 1 1 1;
#X obj 45 -48 - 0;
#X msg 60 -95 set \$1;
#X floatatom 45 -116 13 0 0 0 - - -;
#X obj -26 -117 bng 15 250 50 0 empty empty empty 0 -6 0 8 -262144
-1 -1;
#X obj -26 -95 delay 1000;
#X obj 45 -139 line;
#X msg 45 -162 \$1 100;
#X obj -26 -162 key;
#X obj -36 220 dac~;
#X obj -35 134 osc~;
#X floatatom 45 67 10 0 0 0 - - -;
#X obj 45 -25 abs;
#X obj 45 -2 / 100;
#X obj 45 21 logcurve;
#X floatatom 142 -45 5 0 0 0 - - -;
#X obj 45 110 line 100;
#X msg 45 88 \$1 50;
#X obj -35 196 *~;
#X obj 11 179 / 127;
#X obj -35 168 *~;
#X floatatom 45 133 13 0 0 0 - - -;
#X text -84 -201 TO SET ZERO POINT;
#X text -84 -217 PUSH <SPACE>;
#X text -83 -170 distance;
#X text -84 -186 to tune maximum;
#X text 9 207 volume;
#X text 6 196 theremin;
#X obj 60 -71 nbx 6 16 -1e+37 1e+37 0 0 empty empty empty 0 -6 0 10
-262144 -1 -1 0 256;
#X obj 142 -158 vsl 20 85 1.1 400 0 0 empty empty empty 0 -8 0 8 -262144
-1 -1 1030 1;
#X msg 142 -182 50;
#X obj 142 -205 loadbang;
#X obj 45 155 / 5000;
#X obj -26 -140 select 32;
#X obj -57 90 line~;
#X msg -57 66 \$1 100;
#N canvas 542 46 327 330 grains 0;
#X obj 33 98 grain2~;
#X obj 89 43 grain2~;
#X obj 33 43 grain2~;
#X obj 89 98 grain2~;
#X obj 197 98 grain2~;
#X obj 142 98 grain2~;
#X obj 197 43 grain2~;
#X obj 145 43 grain2~;
#X obj 200 -22 catch~ control;
#X msg 33 19 0;
#X msg 88 18 0.25;
#X msg 197 18 0.375;
#X msg 146 18 0.125;
#X msg 32 74 0.5;
#X msg 88 71 0.75;
#X msg 143 71 0.625;
#X msg 199 74 0.875;
#X obj 50 -26 loadbang;
#X obj 46 138 outlet~;
#X obj 186 137 outlet~;
#X connect 0 0 18 0;
#X connect 1 0 18 0;
#X connect 2 0 18 0;
#X connect 3 0 18 0;
#X connect 4 0 19 0;
#X connect 5 0 19 0;
#X connect 6 0 19 0;
#X connect 7 0 19 0;
#X connect 8 0 2 1;
#X connect 8 0 1 1;
#X connect 8 0 7 1;
#X connect 8 0 6 1;
#X connect 8 0 0 1;
#X connect 8 0 3 1;
#X connect 8 0 5 1;
#X connect 8 0 4 1;
#X connect 9 0 2 0;
#X connect 10 0 1 0;
#X connect 11 0 6 0;
#X connect 12 0 7 0;
#X connect 13 0 0 0;
#X connect 14 0 3 0;
#X connect 15 0 5 0;
#X connect 16 0 4 0;
#X connect 17 0 13 0;
#X connect 17 0 14 0;
#X connect 17 0 15 0;
#X connect 17 0 16 0;
#X connect 17 0 9 0;
#X connect 17 0 10 0;
#X connect 17 0 12 0;
#X connect 17 0 11 0;
#X restore -123 134 pd grains;
#X obj -123 197 dac~;
#X obj -72 167 *~;
#X obj -123 167 *~;
#X obj -35 -40 tgl 15 0 empty empty empty 17 7 0 10 -262144 -1 -1 0
1;
#X obj -57 42 switch 4;
#X obj -57 -15 + 1;
#X obj 11 83 vsl 20 85 0 127 0 0 empty empty empty 0 -8 0 8 -262144
-1 -1 0 1;
#N canvas 362 191 135 264 velocity 0;
#X obj 43 -116 pipe 30;
#X obj 28 -95 -;
#X floatatom 28 -136 5 0 0 0 - - -;
#X floatatom 28 -1 8 0 0 0 - - -;
#X obj 28 -71 * 1;
#X obj 28 -161 inlet;
#X obj 28 -48 / 300;
#X obj 28 -25 abs;
#X obj 28 23 outlet;
#X connect 0 0 1 1;
#X connect 1 0 4 0;
#X connect 2 0 0 0;
#X connect 2 0 1 0;
#X connect 3 0 8 0;
#X connect 4 0 6 0;
#X connect 5 0 2 0;
#X connect 6 0 7 0;
#X connect 7 0 3 0;
#X restore -46 10 pd velocity;
#X obj 341 -25 s rndm;
#X obj 217 85 / 2;
#X obj 191 85 - 0;
#N canvas 58 80 262 182 pos_rndm 0;
#X obj 60 83 +~ 1;
#X obj 60 108 *~ 0;
#X obj 60 60 noise~;
#X obj 102 82 / 2;
#X obj 108 31 inlet;
#X obj 60 143 outlet~;
#X connect 0 0 1 0;
#X connect 1 0 5 0;
#X connect 2 0 0 0;
#X connect 3 0 1 1;
#X connect 4 0 3 0;
#X restore 237 153 pd pos_rndm;
#X obj 395 -24 s gain;
#X obj 308 72 s gfreq;
#X msg 191 129 \$1 5;
#X floatatom 395 -44 0 0 0 0 - - -;
#X obj 237 131 r rndm;
#X obj 191 179 +~;
#X obj 308 -1 t b f;
#X floatatom 308 -24 0 0 0 0 - - -;
#X obj 308 25 expr 1000 / $f1 * $f2;
#X floatatom 255 -45 0 0 0 0 - - -;
#X floatatom 341 -45 0 0 0 0 - - -;
#X obj 191 152 line~;
#X floatatom 191 108 10 0 0 0 - - -;
#X obj 191 201 throw~ control;
#X obj 308 49 * 0.42;
#X floatatom 191 60 10 0 0 0 - - -;
#X obj 191 35 * 1;
#X obj 206 8 r raw_length;
#X floatatom 217 36 5 0 0 0 - - -;
#X obj 395 -157 vsl 20 85 1.1 130 0 0 empty empty empty 0 -8 0 8 -262144
-1 -1 6445 1;
#X obj 395 -64 / 130;
#X msg 255 -180 50;
#X msg 395 -180 100;
#X msg 308 -45 1;
#X obj 308 -243 loadbang;
#X msg 341 -180 10;
#X obj 341 -157 vsl 20 85 5 500 1 0 empty empty empty 0 -8 0 8 -262144
-1 -1 1264 1;
#X obj 341 -65 - 5;
#X obj 255 -157 vsl 20 85 12.5 150 0 0 empty empty empty 0 -8 0 8 -262144
-1 -1 2291 1;
#X text 253 -200 pitch;
#X text 385 -198 volume;
#X text 322 -200 duration;
#X text 257 -218 --------- grain ----------;
#X text 96 -30 long distance response;
#X text 362 -215 comment;
#X msg 501 70 read -resize speach.wav playobject;
#X obj 45 44 * 5000;
#X connect 1 0 2 0;
#X connect 2 0 3 0;
#X connect 5 0 12 0;
#X connect 12 0 0 0;
#X connect 12 0 2 1;
#X connect 12 0 13 0;
#X connect 13 0 2 0;
#X connect 14 0 16 0;
#X connect 15 0 14 0;
#X connect 16 0 5 0;
#X connect 17 0 12 0;
#X connect 18 0 19 0;
#X connect 19 0 20 0;
#X connect 20 0 29 0;
#X connect 21 0 22 0;
#X connect 22 4 18 0;
#X connect 23 0 34 0;
#X connect 24 0 50 0;
#X connect 25 0 24 0;
#X connect 25 0 23 0;
#X connect 26 0 27 0;
#X connect 27 0 50 0;
#X connect 28 0 25 0;
#X connect 29 0 28 0;
#X connect 30 0 55 0;
#X connect 32 0 42 0;
#X connect 33 0 39 0;
#X connect 34 0 35 0;
#X connect 35 0 36 0;
#X connect 36 0 107 0;
#X connect 37 0 36 1;
#X connect 38 0 32 0;
#X connect 38 0 43 0;
#X connect 38 0 66 0;
#X connect 39 0 38 0;
#X connect 40 0 31 0;
#X connect 40 0 31 1;
#X connect 41 0 40 1;
#X connect 42 0 40 0;
#X connect 43 0 54 0;
#X connect 50 0 23 1;
#X connect 51 0 37 0;
#X connect 52 0 51 0;
#X connect 53 0 52 0;
#X connect 54 0 87 0;
#X connect 55 0 26 0;
#X connect 56 0 61 1;
#X connect 56 0 60 1;
#X connect 56 0 42 1;
#X connect 57 0 56 0;
#X connect 58 0 61 0;
#X connect 58 1 60 0;
#X connect 60 0 59 1;
#X connect 61 0 59 0;
#X connect 62 0 64 0;
#X connect 62 0 63 2;
#X connect 63 0 57 0;
#X connect 64 0 63 0;
#X connect 65 0 41 0;
#X connect 66 0 63 1;
#X connect 68 0 69 1;
#X connect 69 0 83 0;
#X connect 70 0 76 1;
#X connect 73 0 82 0;
#X connect 74 0 71 0;
#X connect 75 0 70 0;
#X connect 76 0 84 0;
#X connect 77 0 79 0;
#X connect 77 1 79 1;
#X connect 78 0 77 0;
#X connect 79 0 85 0;
#X connect 80 0 79 0;
#X connect 81 0 67 0;
#X connect 82 0 76 0;
#X connect 83 0 73 0;
#X connect 85 0 72 0;
#X connect 85 0 68 0;
#X connect 86 0 69 0;
#X connect 87 0 86 0;
#X connect 88 0 87 1;
#X connect 88 0 89 0;
#X connect 90 0 91 0;
#X connect 91 0 74 0;
#X connect 92 0 99 0;
#X connect 93 0 90 0;
#X connect 94 0 78 0;
#X connect 95 0 92 0;
#X connect 95 0 96 0;
#X connect 95 0 93 0;
#X connect 95 0 94 0;
#X connect 96 0 97 0;
#X connect 97 0 98 0;
#X connect 98 0 81 0;
#X connect 99 0 80 0;
#X connect 106 0 5 0;
#X connect 107 0 33 0;
