#N canvas 230 67 498 267 10;
#X obj 91 92 nbx 8 16 1e-007 1e+037 0 0 empty empty empty 0 -6 0 10
-262144 -1 -1 1e-007 256;
#X floatatom 340 73 8 1 1000 0 - - -;
#X obj 91 58 inlet;
#X obj 340 51 inlet;
#X obj 91 164 outlet;
#X floatatom 358 128 8 0 0 0 - - -;
#X obj 340 95 nbx 8 16 1 1e+037 0 0 empty empty empty 0 -6 0 10 -262144
-1 -1 1 256;
#X obj 91 127 expr (exp($f1 * log($f2)) - 1) / ($f2 - 1);
#X connect 0 0 7 0;
#X connect 1 0 6 0;
#X connect 2 0 0 0;
#X connect 3 0 1 0;
#X connect 6 0 5 0;
#X connect 6 0 7 1;
#X connect 7 0 4 0;
