#N canvas 561 48 424 516 10;
#X obj -126 323 tgl 15 0 empty empty empty 0 -6 0 8 -262144 -1 -1 1
1;
#X msg -126 342 \; gemwin_mess fullscreen \$1;
#X text -107 321 fullscreen/windowed;
#X obj -130 144 gemwin;
#X obj -129 229 gemmouse;
#X obj -130 120 r gemwin_mess;
#X obj -108 291 s gemwin_mess;
#X obj -108 250 del 100;
#X msg -108 271 destroy;
#X msg -131 192 \; gemwin_mess cursor \$1;
#X obj -131 173 tgl 15 1 empty empty empty 0 -6 0 8 -262144 -1 -1 1
1;
#X text -112 171 show/hide cursor;
#X obj -124 400 hsl 128 15 0 127 0 0 empty empty empty -2 -8 0 10 -262144
-1 -1 0 1;
#X obj -127 422 / 127;
#N canvas 0 22 450 300 gemwin 0;
#X obj 132 136 gemwin;
#X obj 67 89 outlet;
#X obj 67 10 inlet;
#X msg 67 70 set destroy;
#X msg 132 112 create \, 1;
#X msg 198 112 destroy;
#X msg 156 71 set create;
#X obj 67 41 route create;
#X connect 2 0 7 0;
#X connect 3 0 1 0;
#X connect 4 0 0 0;
#X connect 5 0 0 0;
#X connect 6 0 1 0;
#X connect 7 0 3 0;
#X connect 7 0 4 0;
#X connect 7 1 6 0;
#X connect 7 1 5 0;
#X restore -129 83 pd gemwin;
#X msg -129 64 destroy;
#X obj 88 79 gemhead;
#X obj 88 333 pix_texture;
#X obj 100 109 bng 25 250 50 0 empty empty empty 0 -6 0 8 -262144 -1
-1;
#X text 131 109 open a supported;
#X text 132 120 movie-clip;
#X obj 133 295 bng 15 250 50 0 empty empty end_reached 20 7 0 10 -262144
-1 -1;
#X floatatom 139 249 5 0 10000 1 frame# - -;
#X obj 100 138 openpanel;
#X msg 100 158 open \$1;
#X obj 88 355 rectangle 4 3;
#X obj 88 267 pix_film;
#X msg 106 201 auto \$1;
#X obj 106 183 tgl 15 0 empty empty empty 0 -6 0 8 -262144 -1 -1 1
1;
#X msg 117 225 colorspace Grey;
#X connect 0 0 1 0;
#X connect 4 2 7 0;
#X connect 5 0 3 0;
#X connect 7 0 8 0;
#X connect 8 0 6 0;
#X connect 10 0 9 0;
#X connect 12 0 13 0;
#X connect 14 0 15 0;
#X connect 15 0 14 0;
#X connect 16 0 26 0;
#X connect 17 0 25 0;
#X connect 18 0 23 0;
#X connect 22 0 26 1;
#X connect 23 0 24 0;
#X connect 24 0 26 0;
#X connect 26 0 17 0;
#X connect 26 2 21 0;
#X connect 27 0 26 0;
#X connect 28 0 27 0;
#X connect 29 0 26 0;
