#N canvas 530 88 638 518 10;
#X floatatom 153 75 13 0 0 0 - - -;
#X obj 153 212 - 0;
#X msg 168 162 set \$1;
#X floatatom 153 141 13 0 0 0 - - -;
#X obj 71 140 bng 15 250 50 0 empty empty empty 0 -6 0 8 -262144 -1
-1;
#X obj 71 162 delay 1000;
#X obj 153 118 line;
#X msg 153 95 \$1 100;
#X obj 71 95 key;
#X obj 143 453 dac~;
#X obj 153 392 osc~;
#X floatatom 153 327 10 0 0 0 - - -;
#X obj 153 234 abs;
#X floatatom 198 259 5 0 0 0 - - -;
#X obj 153 371 line 100;
#X msg 153 347 \$1 50;
#X obj 153 431 *~;
#X obj 191 392 hsl 60 15 0 127 0 0 empty empty empty -2 -6 0 8 -262144
-1 -1 0 1;
#X obj 187 414 / 127;
#X msg 198 234 10;
#X text 15 57 TO SET ZERO POINT;
#X text 15 41 PUSH <SPACE>;
#X text 16 88 distance;
#X text 15 71 to tune maximum;
#X text 188 444 volume;
#X text 187 431 theremin;
#X obj 168 187 nbx 6 16 -1e+37 1e+37 0 0 empty empty empty 0 -6 0 10
-262144 -1 -1 7451.3 256;
#X obj 245 160 vsl 20 85 1.1 400 0 0 empty empty empty 0 -8 0 8 -262144
-1 -1 2730 1;
#X text 238 266 (default=50);
#X msg 245 136 50;
#X text 236 250 long distance response;
#X obj 245 108 loadbang;
#X obj 71 116 select 32;
#X obj 153 280 logcurve;
#X obj 99 -14 loadbang;
#X obj 99 26 metro 1;
#X obj 99 7 tgl 15 0 empty empty empty 17 7 0 10 -262144 -1 -1 1 1
;
#X obj 153 53 snapshot~;
#X obj 268 372 tgl 15 0 empty empty empty 0 -6 0 8 -262144 -1 -1 0
1;
#X msg 268 391 \; gemwin_mess fullscreen \$1;
#X text 287 370 fullscreen/windowed;
#X msg 437 390 \; gemwin_mess cursor \$1;
#X obj 437 371 tgl 15 1 empty empty empty 0 -6 0 8 -262144 -1 -1 1
1;
#X text 456 369 show/hide cursor;
#N canvas 0 22 450 300 gemwin 0;
#X obj 132 136 gemwin;
#X obj 67 89 outlet;
#X obj 67 10 inlet;
#X msg 67 70 set destroy;
#X msg 132 112 create \, 1;
#X msg 198 112 destroy;
#X msg 156 71 set create;
#X obj 67 41 route create;
#X connect 2 0 7 0;
#X connect 3 0 1 0;
#X connect 4 0 0 0;
#X connect 5 0 0 0;
#X connect 6 0 1 0;
#X connect 7 0 3 0;
#X connect 7 0 4 0;
#X connect 7 1 6 0;
#X connect 7 1 5 0;
#X restore 305 81 pd gemwin;
#X msg 305 52 destroy;
#X obj 423 82 gemhead;
#X obj 423 293 pix_texture;
#X obj 435 112 bng 25 250 50 0 empty empty empty 0 -6 0 8 -262144 -1
-1;
#X text 466 112 open a supported;
#X text 467 123 movie-clip;
#X obj 468 255 bng 15 250 50 0 empty empty end_reached 20 7 0 10 -262144
-1 -1;
#X floatatom 468 206 5 0 10000 1 frame# - -;
#X obj 435 141 openpanel;
#X msg 435 161 open \$1;
#X obj 423 315 rectangle 4 3;
#X obj 423 227 pix_film;
#X msg 452 185 colorspace Grey;
#X floatatom 345 285 5 0 0 3 length - -;
#X obj 330 319 * 1;
#X obj 304 133 gemwin;
#X obj 304 155 gemmouse;
#X obj 304 109 r gemwin_mess;
#X obj 325 217 s gemwin_mess;
#X obj 325 176 del 100;
#X msg 325 197 destroy;
#X obj 153 26 usbsen2~ 20 1 /dev/cu.usbmodem1411;
#X floatatom 66 303 10 0 0 0 - - -;
#X obj 153 257 / 200;
#X obj 153 303 * 4000;
#X obj 261 287 nbx 6 16 -1e+37 0.99 0 0 empty empty empty 0 -6 0 10
-262144 -1 -1 0.824049 256;
#X connect 0 0 7 0;
#X connect 1 0 12 0;
#X connect 2 0 26 0;
#X connect 3 0 2 0;
#X connect 3 0 1 0;
#X connect 4 0 5 0;
#X connect 5 0 26 0;
#X connect 6 0 3 0;
#X connect 7 0 6 0;
#X connect 8 0 32 0;
#X connect 10 0 16 0;
#X connect 11 0 15 0;
#X connect 12 0 68 0;
#X connect 13 0 33 1;
#X connect 14 0 10 0;
#X connect 15 0 14 0;
#X connect 16 0 9 0;
#X connect 16 0 9 1;
#X connect 17 0 18 0;
#X connect 18 0 16 1;
#X connect 19 0 13 0;
#X connect 26 0 1 1;
#X connect 27 0 13 0;
#X connect 29 0 27 0;
#X connect 31 0 29 0;
#X connect 31 0 19 0;
#X connect 32 0 4 0;
#X connect 33 0 67 0;
#X connect 33 0 69 0;
#X connect 33 0 70 0;
#X connect 34 0 36 0;
#X connect 35 0 37 0;
#X connect 36 0 35 0;
#X connect 37 0 0 0;
#X connect 38 0 39 0;
#X connect 42 0 41 0;
#X connect 44 0 45 0;
#X connect 45 0 44 0;
#X connect 46 0 56 0;
#X connect 47 0 55 0;
#X connect 48 0 53 0;
#X connect 52 0 56 1;
#X connect 53 0 54 0;
#X connect 54 0 56 0;
#X connect 56 0 47 0;
#X connect 56 1 58 0;
#X connect 56 2 51 0;
#X connect 57 0 56 0;
#X connect 58 0 59 1;
#X connect 59 0 52 0;
#X connect 61 2 64 0;
#X connect 62 0 60 0;
#X connect 64 0 65 0;
#X connect 65 0 63 0;
#X connect 66 0 37 0;
#X connect 68 0 33 0;
#X connect 69 0 11 0;
#X connect 70 0 59 0;
