#N canvas 193 123 738 476 12;
#X obj 68 43 tgl 15 0 empty empty empty 0 -6 0 8 -262144 -1 -1 1 1
;
#X obj 54 421 dac~;
#X obj 67 359 osc~;
#X obj 67 125 snapshot~;
#X floatatom 67 157 10 0 0 0 - - -;
#X floatatom 67 237 10 0 0 0 - - -;
#X obj 67 301 line 100;
#X msg 67 268 \$1 50;
#X obj 67 389 *~;
#X obj 68 75 metro 1;
#X obj 176 125 snapshot~;
#X floatatom 176 157 10 0 0 0 - - -;
#X obj 287 126 snapshot~;
#X floatatom 287 157 10 0 0 0 - - -;
#X obj 68 204 s_scaling;
#X obj 164 423 dac~;
#X obj 177 358 osc~;
#X floatatom 177 236 10 0 0 0 - - -;
#X obj 177 300 line 100;
#X msg 177 267 \$1 50;
#X obj 177 389 *~;
#X obj 275 421 dac~;
#X obj 288 359 osc~;
#X floatatom 288 237 10 0 0 0 - - -;
#X obj 288 301 line 100;
#X msg 288 268 \$1 50;
#X obj 288 389 *~;
#X obj 404 63 vsl 20 85 1.1 400 0 0 empty empty empty 0 -8 0 8 -262144
-1 -1 1030 1;
#X text 429 79 response;
#X text 427 103 (default=50);
#X text 428 59 long distance;
#X floatatom 405 175 5 0 0 0 - - -;
#X text 465 222 TO SET ZERO POINT;
#X text 466 253 distance;
#X text 465 237 to define maximum;
#X obj 410 273 vsl 20 85 0 127 0 0 empty empty empty 0 -8 0 8 -262144
-1 -1 3969 1;
#X text 438 343 volume;
#X obj 67 7 loadbang;
#X obj 410 369 / 300;
#X msg 405 247 60;
#X obj 177 205 s_scaling;
#X obj 288 205 s_scaling;
#X obj 574 180 bng 25 250 50 0 empty empty empty 0 -6 0 8 -262144 -1
-1;
#X text 465 206 PUSH <SPACE> or BANG;
#X obj 575 125 bng 15 250 50 0 empty empty empty 0 -6 0 8 -262144 -1
-1;
#X obj 575 150 delay 1000;
#X obj 575 65 key;
#X obj 576 96 == 32;
#X msg 403 36 50;
#X text 76 330 out1;
#X text 188 328 out2;
#X text 298 328 out3;
#X text 546 295 dsp ON/OFF;
#X floatatom 581 375 5 0 0 0 - - -;
#X obj 581 344 dsp;
#X obj 581 319 tgl 15 0 empty empty empty 8 -8 0 10 -262144 -1 -1 0
1;
#X obj 153 76 usbsen2~ 20 3 /dev/cu.usbmodemfd121;
#X connect 0 0 9 0;
#X connect 2 0 8 0;
#X connect 3 0 4 0;
#X connect 4 0 14 0;
#X connect 5 0 7 0;
#X connect 6 0 2 0;
#X connect 7 0 6 0;
#X connect 8 0 1 0;
#X connect 8 0 1 1;
#X connect 9 0 3 0;
#X connect 9 0 10 0;
#X connect 9 0 12 0;
#X connect 10 0 11 0;
#X connect 11 0 40 0;
#X connect 12 0 13 0;
#X connect 13 0 41 0;
#X connect 14 0 5 0;
#X connect 16 0 20 0;
#X connect 17 0 19 0;
#X connect 18 0 16 0;
#X connect 19 0 18 0;
#X connect 20 0 15 0;
#X connect 20 0 15 1;
#X connect 22 0 26 0;
#X connect 23 0 25 0;
#X connect 24 0 22 0;
#X connect 25 0 24 0;
#X connect 26 0 21 0;
#X connect 26 0 21 1;
#X connect 27 0 31 0;
#X connect 31 0 14 1;
#X connect 31 0 40 1;
#X connect 31 0 41 1;
#X connect 35 0 38 0;
#X connect 37 0 0 0;
#X connect 37 0 48 0;
#X connect 37 0 39 0;
#X connect 38 0 8 1;
#X connect 38 0 20 1;
#X connect 38 0 26 1;
#X connect 39 0 35 0;
#X connect 40 0 17 0;
#X connect 41 0 23 0;
#X connect 42 0 41 2;
#X connect 42 0 40 2;
#X connect 42 0 14 2;
#X connect 44 0 45 0;
#X connect 45 0 42 0;
#X connect 46 0 47 0;
#X connect 47 0 44 0;
#X connect 48 0 27 0;
#X connect 54 0 53 0;
#X connect 55 0 54 0;
#X connect 56 0 3 0;
#X connect 56 1 10 0;
#X connect 56 2 12 0;
