#N canvas 46 176 1146 483 12;
#X obj 182 99 hip~ 5;
#X obj 283 99 * 441;
#X obj 326 124 s chunk-size;
#X floatatom 182 47 0 0 0 0 - - -;
#X obj 326 99 * 0.01;
#X obj 326 -124 loadbang;
#X obj 283 148 s chunk-size-samples;
#X obj 374 246 s~ read-pt;
#N canvas 607 80 542 455 grains 0;
#X obj -67 -140 r chunk-size;
#X obj -67 -115 t b f;
#X obj -78 -91 /;
#X obj -78 -170 expr pow(2 \, $f1/120);
#X obj -78 -67 phasor~;
#X obj -109 29 wrap~;
#X text -40 -92 loop frequency;
#X obj -45 29 wrap~;
#X obj 19 28 wrap~;
#X obj 83 29 wrap~;
#X obj 147 29 wrap~;
#X obj 211 28 wrap~;
#X obj 276 27 wrap~;
#X obj -109 3 +~ 0.125;
#X obj -45 3 +~ 0.25;
#X obj 19 2 +~ 0.375;
#X obj 83 3 +~ 0.5;
#X obj 147 3 +~ 0.625;
#X obj 211 2 +~ 0.75;
#X obj 276 1 +~ 0.875;
#X obj -78 -197 inlet;
#X obj 19 104 +~;
#X obj 50 105 +~;
#X obj 82 104 +~;
#X obj 114 104 +~;
#X obj 24 143 +~;
#X obj 91 143 +~;
#X obj 91 173 outlet~;
#X obj 24 173 outlet~;
#X obj -173 55 grain00~;
#X obj -109 55 grain00~;
#X obj -45 55 grain00~;
#X obj 19 55 grain00~;
#X obj 83 55 grain00~;
#X obj 147 55 grain00~;
#X obj 211 54 grain00~;
#X obj 276 54 grain00~;
#X connect 0 0 1 0;
#X connect 1 0 2 0;
#X connect 1 1 2 1;
#X connect 2 0 4 0;
#X connect 3 0 2 0;
#X connect 4 0 13 0;
#X connect 4 0 14 0;
#X connect 4 0 15 0;
#X connect 4 0 16 0;
#X connect 4 0 17 0;
#X connect 4 0 18 0;
#X connect 4 0 19 0;
#X connect 4 0 29 0;
#X connect 5 0 30 0;
#X connect 7 0 31 0;
#X connect 8 0 32 0;
#X connect 9 0 33 0;
#X connect 10 0 34 0;
#X connect 11 0 35 0;
#X connect 12 0 36 0;
#X connect 13 0 5 0;
#X connect 14 0 7 0;
#X connect 15 0 8 0;
#X connect 16 0 9 0;
#X connect 17 0 10 0;
#X connect 18 0 11 0;
#X connect 19 0 12 0;
#X connect 20 0 3 0;
#X connect 21 0 25 0;
#X connect 22 0 26 0;
#X connect 23 0 25 1;
#X connect 24 0 26 1;
#X connect 25 0 28 0;
#X connect 26 0 27 0;
#X connect 29 0 21 0;
#X connect 30 0 22 0;
#X connect 31 0 23 0;
#X connect 32 0 24 0;
#X connect 33 0 21 1;
#X connect 34 0 22 1;
#X connect 35 0 23 1;
#X connect 36 0 24 1;
#X restore 182 73 pd grains;
#X obj 232 99 hip~ 5;
#X obj 232 128 *~;
#X obj 182 127 *~;
#X obj 196 154 dac~;
#X obj 374 220 +~;
#X floatatom 392 99 6 0 0 0 - - -;
#X msg 392 -44 10;
#X obj 392 -18 vsl 20 85 5 500 1 0 empty empty empty 0 -8 0 8 -262144
-1 -1 1264 1;
#X obj 392 74 - 5;
#X msg 701 -105 \; pd dsp 1;
#X msg 784 -105 \; pd dsp 0;
#X text 726 -67 ON;
#X text 804 -69 OFF;
#X obj 133 107 / 100;
#N canvas 0 22 450 300 (subpatch) 0;
#X array table02 165046 float 0;
#X coords 0 1.02 165045 -1.02 200 130 1;
#X restore 675 -12 graph;
#X obj 683 150 adc~ 1;
#X obj 683 175 hip~ 5;
#X msg 744 176 bang;
#X obj 469 68 sampstoms;
#X obj 469 99 bng 15 250 50 0 empty empty empty 20 8 0 8 -262144 -1
-1;
#X obj 469 -12 openpanel;
#X msg 469 -40 bang;
#X floatatom 489 95 8 0 0 0 - - -;
#X msg 469 14 read -resize \$1 table02;
#X obj 683 203 tabwrite~ table02;
#X obj 451 171 *;
#X msg 451 195 \$1 5;
#X obj 451 219 line~;
#X obj 469 42 soundfiler;
#N canvas 58 80 136 166 prnd 0;
#X obj 18 45 +~ 1;
#X obj 18 70 *~ 0;
#X obj 18 22 noise~;
#X obj 66 44 / 2;
#X obj 66 -7 inlet;
#X obj 18 105 outlet~;
#X connect 0 0 1 0;
#X connect 1 0 5 0;
#X connect 2 0 0 0;
#X connect 3 0 1 1;
#X connect 4 0 3 0;
#X restore 392 195 pd prnd;
#X text 731 151 <--record;
#X obj 469 145 * 44.1;
#X obj 446 120 expr $f2 - $f1;
#X obj 326 -19 vsl 20 85 1 40 1 0 empty empty empty 0 -8 0 8 -262144
-1 -1 4080 1;
#X floatatom 326 75 5 0 0 0 - - -;
#X text 127 -68 volume;
#X obj 133 -18 vsl 20 85 1 100 1 0 empty empty empty 0 -8 0 8 -262144
-1 -1 7136 1;
#X floatatom 133 79 5 0 0 0 - - -;
#X msg 133 -44 50;
#X text 168 27 transposition;
#X msg 326 -44 6;
#X text 464 -58 load sound;
#X obj -39 70 - 0;
#X msg -21 25 set \$1;
#X obj -117 48 bng 15 250 50 0 empty empty empty 0 -6 0 8 -262144 -1
-1;
#X obj -117 68 delay 1000;
#X obj -39 1 line;
#X obj -117 -1 key;
#X obj -39 93 abs;
#X obj -39 116 / 100;
#X obj -39 139 logcurve;
#X floatatom 55 79 5 0 0 0 - - -;
#X obj -39 186 line 100;
#X text -166 -51 TO SET ZERO POINT;
#X text -166 -67 PUSH <SPACE>;
#X text -165 -20 distance;
#X text -166 -36 to tune maximum;
#X obj -21 49 nbx 6 16 -1e+37 1e+37 0 0 empty empty empty 0 -6 0 10
-262144 -1 -1 10034.6 256;
#X obj 55 -18 vsl 20 85 1.1 400 0 0 empty empty empty 0 -8 0 8 -262144
-1 -1 1030 1;
#X msg 55 -44 50;
#X obj -117 23 select 32;
#X text 86 -133 USB-SENSOR GRANULAR PLAYER 2;
#X floatatom -39 210 5 0 0 0 - - -;
#X msg -39 163 \$1 20;
#X obj 380 -96 delay 100;
#X text 295 -65 chunk size;
#X text 391 -64 pos rnd;
#X text -1 94 long dist response;
#X floatatom -39 -48 8 0 0 0 - - -;
#X obj -96 -116 tgl 15 0 empty empty empty 0 -6 0 8 -262144 -1 -1 1
1;
#X obj -39 -73 snapshot~;
#X obj -95 -98 metro 1;
#X obj -95 -139 loadbang;
#X msg -39 -24 \$1 20;
#X msg 454 -96 read -resize speach.wav table02;
#X obj -39 -98 usbsen2~ 20 1 /dev/cu.usbmodem1421;
#X connect 0 0 11 0;
#X connect 1 0 6 0;
#X connect 3 0 8 0;
#X connect 4 0 2 0;
#X connect 5 0 3 0;
#X connect 5 0 47 0;
#X connect 5 0 49 0;
#X connect 5 0 15 0;
#X connect 5 0 68 0;
#X connect 5 0 83 0;
#X connect 5 0 73 0;
#X connect 8 0 0 0;
#X connect 8 1 9 0;
#X connect 9 0 10 0;
#X connect 10 0 12 1;
#X connect 11 0 12 0;
#X connect 13 0 7 0;
#X connect 14 0 38 0;
#X connect 14 0 41 0;
#X connect 15 0 16 0;
#X connect 16 0 17 0;
#X connect 17 0 14 0;
#X connect 22 0 11 1;
#X connect 22 0 10 1;
#X connect 24 0 25 0;
#X connect 25 0 33 0;
#X connect 26 0 33 0;
#X connect 27 0 28 0;
#X connect 27 0 31 0;
#X connect 27 0 41 1;
#X connect 28 0 41 0;
#X connect 28 0 40 0;
#X connect 29 0 32 0;
#X connect 30 0 29 0;
#X connect 32 0 37 0;
#X connect 34 0 35 0;
#X connect 35 0 36 0;
#X connect 36 0 13 0;
#X connect 37 0 27 0;
#X connect 38 0 13 1;
#X connect 40 0 34 1;
#X connect 41 0 40 0;
#X connect 42 0 43 0;
#X connect 43 0 1 0;
#X connect 43 0 4 0;
#X connect 45 0 46 0;
#X connect 46 0 22 0;
#X connect 47 0 45 0;
#X connect 49 0 42 0;
#X connect 51 0 57 0;
#X connect 52 0 66 0;
#X connect 53 0 54 0;
#X connect 54 0 66 0;
#X connect 55 0 51 0;
#X connect 55 0 52 0;
#X connect 56 0 69 0;
#X connect 57 0 58 0;
#X connect 58 0 59 0;
#X connect 59 0 72 0;
#X connect 60 0 59 1;
#X connect 61 0 34 0;
#X connect 61 0 71 0;
#X connect 66 0 51 1;
#X connect 67 0 60 0;
#X connect 68 0 67 0;
#X connect 69 0 53 0;
#X connect 72 0 61 0;
#X connect 73 0 28 0;
#X connect 77 0 82 0;
#X connect 78 0 80 0;
#X connect 79 0 77 0;
#X connect 80 0 79 0;
#X connect 81 0 78 0;
#X connect 82 0 55 0;
#X connect 83 0 37 0;
#X connect 84 0 79 0;
