#N canvas 160 20 681 645 10;
#X declare -lib mrpeach;
#X declare -lib moocow -lib ratts-0.08;
#X declare -lib ratts;
#X msg 70 6 status;
#X msg 138 28 port 6667;
#X msg 138 5 port 5005;
#X obj 371 9 import mrpeach;
#X obj 70 56 udpreceive 5005;
#X obj 70 87 bytes2any 128 32;
#X obj 70 111 route bang;
#X obj 233 586 dac~;
#X text 44 379 Klatt formant synthesizer;
#X obj 127 362 klatt~ mspf 10;
#X obj 233 282 metro 10;
#X obj 127 212 guessphones;
#X obj 127 336 holmes;
#X obj 127 237 phones2holmes;
#X obj 233 261 tgl 15 0 empty empty empty 17 7 0 10 -262144 -1 -1 0
1;
#X obj 372 33 import moocow ratts-0.08;
#X msg 547 202 \; pd dsp 1;
#X msg 547 235 \; pd dsp 0;
#X obj 547 180 loadbang;
#X obj 348 162 rattstok;
#X obj 348 216 guessphones;
#X obj 348 244 phones2holmes f;
#X obj 363 189 number2text;
#X obj 370 76 ratts;
#X obj 127 161 rattstok;
#X obj 142 188 number2text;
#X obj 349 443 *~;
#X obj 128 439 *~;
#X obj 367 409 hsl 128 15 0 1 0 0 empty empty VOLUME 5 8 0 10 -262144
-1 -1 0 1;
#X msg 233 240 1;
#X obj 348 346 holmes f0decl 10 topc 15.1 basec 0;
#X obj 348 370 klatt~ mspf 10;
#X obj 371 55 import ratts;
#X msg 416 510 0.43.1-extended-20120404;
#X text 415 492 test -> pd-version :;
#X text 413 533 lib mrpeach \, moocow \, ratts;
#X text 412 549 run python script speechpoetbot.py;
#X connect 0 0 4 0;
#X connect 1 0 4 0;
#X connect 2 0 4 0;
#X connect 4 0 5 0;
#X connect 5 0 6 0;
#X connect 6 1 24 0;
#X connect 6 1 19 0;
#X connect 9 0 27 0;
#X connect 10 0 12 0;
#X connect 10 0 30 0;
#X connect 11 0 13 0;
#X connect 11 0 29 0;
#X connect 12 0 9 0;
#X connect 13 0 12 0;
#X connect 14 0 10 0;
#X connect 18 0 16 0;
#X connect 19 0 20 0;
#X connect 19 1 22 0;
#X connect 19 2 20 0;
#X connect 20 0 21 0;
#X connect 21 0 30 0;
#X connect 22 0 20 0;
#X connect 24 0 11 0;
#X connect 24 1 25 0;
#X connect 24 2 11 0;
#X connect 25 0 11 0;
#X connect 26 0 7 1;
#X connect 26 0 7 0;
#X connect 27 0 7 0;
#X connect 27 0 7 1;
#X connect 28 0 26 1;
#X connect 28 0 27 1;
#X connect 29 0 14 0;
#X connect 30 0 31 0;
#X connect 31 0 26 0;
