#N canvas 176 162 267 309 10;
#X obj -16 -107 +~ 1;
#X obj -16 -29 *~;
#X obj -16 -78 +~;
#X obj 20 -95 samphold~;
#X obj -16 -158 samphold~;
#X obj -16 -132 *~;
#X obj 113 -93 -~ 0.5;
#X obj 113 -69 *~ 0.5;
#X obj 113 -46 cos~;
#X obj 20 -118 r~ read-pt;
#X obj -16 -186 r chunk-size-samples;
#X obj 113 -175 inlet~;
#X obj -16 -5 outlet~;
#X obj -16 -53 tabread4~ table02;
#X connect 0 0 2 0;
#X connect 1 0 12 0;
#X connect 2 0 13 0;
#X connect 3 0 2 1;
#X connect 4 0 5 0;
#X connect 5 0 0 0;
#X connect 6 0 7 0;
#X connect 7 0 8 0;
#X connect 8 0 1 1;
#X connect 9 0 3 0;
#X connect 10 0 4 0;
#X connect 11 0 4 1;
#X connect 11 0 5 1;
#X connect 11 0 6 0;
#X connect 11 0 3 1;
#X connect 13 0 1 0;
