#N canvas 230 67 498 267 10;
#X obj 91 127 expr log($f1 * ($f2 - 1) + 1) / log($f2);
#X obj 92 92 nbx 8 16 1e-07 1e+37 0 0 empty empty empty 0 -6 0 10 -262144
-1 -1 0.48622 256;
#X floatatom 365 80 8 1 1000 0 - - -;
#X obj 91 58 inlet;
#X obj 364 58 inlet;
#X obj 90 164 outlet;
#X floatatom 388 130 8 0 0 0 - - -;
#X obj 365 102 nbx 8 16 1 1e+37 0 0 empty empty empty 0 -6 0 10 -262144
-1 -1 2 256;
#X connect 0 0 5 0;
#X connect 1 0 0 0;
#X connect 2 0 7 0;
#X connect 3 0 1 0;
#X connect 4 0 2 0;
#X connect 7 0 0 1;
#X connect 7 0 6 0;
