#N canvas 485 88 539 680 10;
#X floatatom 212 140 13 0 0 0 - - -;
#X obj 212 277 - 0;
#X msg 227 227 set \$1;
#X floatatom 212 206 13 0 0 0 - - -;
#X obj 130 205 bng 15 250 50 0 empty empty empty 0 -6 0 8 -262144 -1
-1;
#X obj 130 227 delay 1000;
#X obj 398 317 pipe 30;
#X obj 383 342 -;
#X floatatom 383 297 5 0 0 0 - - -;
#X obj 383 363 * 1;
#X msg 383 384 \$1 200;
#X obj 212 183 line;
#X msg 212 160 \$1 100;
#X obj 130 160 key;
#X obj 299 594 dac~;
#X obj 309 475 osc~;
#X floatatom 212 392 10 0 0 0 - - -;
#X obj 212 299 abs;
#X obj 212 322 / 100;
#X floatatom 257 324 5 0 0 0 - - -;
#X obj 212 436 line 100;
#X msg 212 412 \$1 50;
#X obj 309 572 *~;
#X obj 329 529 hsl 60 15 0 127 0 0 empty empty empty -2 -6 0 8 -262144
-1 -1 0 1;
#X obj 325 551 / 127;
#X msg 257 299 10;
#X obj 309 505 *~;
#X floatatom 212 476 13 0 0 0 - - -;
#X text 53 121 TO SET ZERO POINT;
#X text 53 105 PUSH <SPACE>;
#X text 54 152 distance;
#X text 53 136 to tune maximum;
#X text 219 495 distance out;
#X text 389 495 velocity out;
#X text 367 558 volume;
#X text 365 544 theremin;
#X floatatom 383 477 13 0 0 0 - - -;
#X obj 227 252 nbx 6 16 -1e+37 1e+37 0 0 empty empty empty 0 -6 0 10
-262144 -1 -1 0 256;
#X obj 304 225 vsl 20 85 1.1 400 0 0 empty empty empty 0 -8 0 8 -262144
-1 -1 1030 1;
#X text 331 265 (default=50);
#X msg 304 201 50;
#X text 331 249 long distance response;
#X obj 304 173 loadbang;
#X obj 130 181 select 32;
#X obj 383 405 line~;
#X obj 383 428 /~ 300;
#X obj 383 450 abs~;
#X obj 212 345 logcurve;
#X obj 158 51 loadbang;
#X obj 158 91 metro 1;
#X obj 158 72 tgl 15 0 empty empty empty 17 7 0 10 -262144 -1 -1 1
1;
#X obj 212 91 usbsen2~ 20 2;
#X obj 212 118 snapshot~;
#X obj 212 369 * 5000;
#X connect 0 0 12 0;
#X connect 1 0 17 0;
#X connect 2 0 37 0;
#X connect 3 0 2 0;
#X connect 3 0 1 0;
#X connect 4 0 5 0;
#X connect 5 0 37 0;
#X connect 6 0 7 1;
#X connect 7 0 9 0;
#X connect 8 0 6 0;
#X connect 8 0 7 0;
#X connect 9 0 10 0;
#X connect 10 0 44 0;
#X connect 11 0 3 0;
#X connect 12 0 11 0;
#X connect 13 0 43 0;
#X connect 15 0 26 0;
#X connect 16 0 21 0;
#X connect 17 0 18 0;
#X connect 18 0 47 0;
#X connect 19 0 47 1;
#X connect 20 0 15 0;
#X connect 20 0 8 0;
#X connect 20 0 27 0;
#X connect 21 0 20 0;
#X connect 22 0 14 0;
#X connect 22 0 14 1;
#X connect 23 0 24 0;
#X connect 24 0 22 1;
#X connect 25 0 19 0;
#X connect 26 0 22 0;
#X connect 37 0 1 1;
#X connect 38 0 19 0;
#X connect 40 0 38 0;
#X connect 42 0 40 0;
#X connect 42 0 25 0;
#X connect 43 0 4 0;
#X connect 44 0 45 0;
#X connect 45 0 46 0;
#X connect 46 0 26 1;
#X connect 46 0 36 0;
#X connect 47 0 53 0;
#X connect 48 0 50 0;
#X connect 49 0 52 0;
#X connect 50 0 49 0;
#X connect 51 0 52 0;
#X connect 52 0 0 0;
#X connect 53 0 16 0;
